<svg id="Group_2070" data-name="Group 2070" xmlns="http://www.w3.org/2000/svg" xmlns:xlink="http://www.w3.org/1999/xlink" width="32.448" height="32.449" viewBox="0 0 32.448 32.449">
  <defs>
    <clipPath id="clip-path">
      <rect id="Rectangle_928" data-name="Rectangle 928" width="32.448" height="32.449" fill="#1d0d63"/>
    </clipPath>
  </defs>
  <g id="Group_2069" data-name="Group 2069" clip-path="url(#clip-path)">
    <path id="Path_7390" data-name="Path 7390" d="M28.715,32.449H3.169c-.068-.024-.134-.051-.2-.07A2.517,2.517,0,0,1,1.035,30.6C.691,29.326.449,28.02.193,26.721.088,26.188.062,25.639,0,25.1v-9.95a1.182,1.182,0,0,0,.057-.178A4.734,4.734,0,0,1,1.928,11.81Q9.129,6.394,16.343,1a4.933,4.933,0,0,1,3.041-1Q24.517,0,29.65.005a3.184,3.184,0,0,1,.812.1,2.725,2.725,0,0,1,1.98,3q-.336,6.4-.672,12.809-.361,6.958-.713,13.917a2.716,2.716,0,0,1-2.009,2.52l-.333.093m1.447-6.5c.008-.121.016-.2.02-.288q.257-4.95.514-9.9.334-6.389.671-12.778a1.649,1.649,0,0,0-1.829-1.9c-3.316,0-6.633.011-9.949-.006a4.467,4.467,0,0,0-2.818.945C13.588,4.425,10.39,6.811,7.2,9.2l-4.535,3.4a3.6,3.6,0,0,0-1.569,2.937c-.013,3.241.029,6.482.054,9.724,0,.227.044.454.068.683Zm-.2,3.279H1.747c.08.29.148.563.231.831a1.659,1.659,0,0,0,1.775,1.311H28.176a2.442,2.442,0,0,0,.441-.027,1.726,1.726,0,0,0,1.345-2.114M1.329,27.066a5.864,5.864,0,0,1,.108.705c.01.308.153.363.438.363q13.906-.012,27.813-.006h.369l.058-1.062Z" transform="translate(0 0)" fill="#1d0d63"/>
    <path id="Path_7391" data-name="Path 7391" d="M44.843,39.537q-5.942,0-11.883,0a1.509,1.509,0,0,1-.933-2.744c.5-.374,1-.74,1.493-1.123.315-.246.6-.533.917-.772.344-.257.726-.465,1.073-.719.893-.656,1.777-1.326,2.664-1.991q4.029-3.022,8.055-6.047a3.176,3.176,0,0,1,2-.671c2.968.01,5.936,0,8.9,0a1.652,1.652,0,0,1,1.823,1.91q-.273,5.3-.555,10.6a1.62,1.62,0,0,1-1.7,1.556q-5.926,0-11.851,0m-6.376-1.1c.124.007.216.017.309.017H56.61c.51,0,.688-.171.714-.67q.273-5.218.547-10.435c.032-.608-.148-.8-.764-.8q-4.451,0-8.9,0a2.052,2.052,0,0,0-1.291.429Q42.31,30.444,37.7,33.9c-.081.061-.159.128-.25.2a1.185,1.185,0,0,1,1.02,1.388q0,.681,0,1.362V38.44m-1.1-3.22c-.4,0-.771-.01-1.139,0A1.606,1.606,0,0,0,34.692,36.6,1.57,1.57,0,0,0,35.8,38.362a9.945,9.945,0,0,0,1.564.127Zm-3.831,1.792c-.3.225-.631.447-.923.714a.522.522,0,0,0-.113.445.471.471,0,0,0,.339.269c.413.034.829.013,1.215.013l-.518-1.441" transform="translate(-28.726 -23.313)" fill="#1d0d63"/>
    <path id="Path_7392" data-name="Path 7392" d="M258.246,207.507c-.38,0-.759.01-1.139,0a1.615,1.615,0,0,1-.039-3.226c.79-.03,1.582-.031,2.372,0a1.615,1.615,0,0,1-.055,3.226c-.379.012-.759,0-1.139,0m.036-2.158c-.347,0-.695-.005-1.042,0a.553.553,0,0,0-.61.542.545.545,0,0,0,.61.536q1.01.007,2.02,0a.545.545,0,0,0,.61-.536.554.554,0,0,0-.61-.542c-.326-.007-.652,0-.979,0" transform="translate(-233.909 -186.963)" fill="#1d0d63"/>
  </g>
</svg>
