<svg id="Group_2075" data-name="Group 2075" xmlns="http://www.w3.org/2000/svg" xmlns:xlink="http://www.w3.org/1999/xlink" width="32.023" height="32" viewBox="0 0 32.023 32">
  <defs>
    <clipPath id="clip-path">
      <rect id="Rectangle_930" data-name="Rectangle 930" width="32.023" height="32" fill="#1d0d63"/>
    </clipPath>
  </defs>
  <g id="Group_2074" data-name="Group 2074" clip-path="url(#clip-path)">
    <path id="Path_7394" data-name="Path 7394" d="M0,11.809c.411-.974.824-1.948,1.227-2.925a.448.448,0,0,0-.013-.291A1.616,1.616,0,0,1,1.332,7.21,14.576,14.576,0,0,1,7.214,1.328,1.66,1.66,0,0,1,8.6,1.2.639.639,0,0,0,9,1.167C9.856.821,10.7.435,11.564.112a1.425,1.425,0,0,1,1.964,1.029c.146.507.277,1.019.405,1.492.888-.094,1.742-.232,2.6-.268a14.824,14.824,0,0,1,3.48,29.362c-.642.124-1.3.183-1.944.272H16.256c-.1-.019-.2-.043-.3-.057-.576-.081-1.16-.124-1.728-.246A14.6,14.6,0,0,1,4.161,24.271a14.292,14.292,0,0,1-1.737-8.548c.057-.6.161-1.187.245-1.795-.419-.11-.827-.237-1.243-.323A1.713,1.713,0,0,1,0,12.371v-.563m3.936,2.468A13.562,13.562,0,0,0,27.194,26.332a13.516,13.516,0,0,0,.919-17.2A13.373,13.373,0,0,0,14.288,3.944c.024.1.042.2.074.3a1.377,1.377,0,0,1-.122,1.366c-.045.059-.016.175-.016.265a7.359,7.359,0,0,1-.01,1.149A3.145,3.145,0,0,1,12.579,9.2a8.563,8.563,0,0,0-2.129,1.721c-.487.58-.921,1.206-1.353,1.829a3.051,3.051,0,0,1-2.987,1.494,1.269,1.269,0,0,0-.764.121,1.451,1.451,0,0,1-.72.075,4.2,4.2,0,0,1-.691-.161m.89-1.068a13.147,13.147,0,0,1,8.392-8.391c-.3-1.14-.6-2.253-.9-3.366-.059-.218-.206-.232-.39-.152-.933.406-1.871.8-2.8,1.221a.786.786,0,0,1-.873-.048.509.509,0,0,0-.444-.031A12.928,12.928,0,0,0,2.442,7.813a.473.473,0,0,0,.021.419.792.792,0,0,1,.044.926C2.15,9.9,1.8,10.639,1.5,11.4c-.38.962-.391.807.542,1.065s1.845.492,2.789.743M13,6.269C10.364,6.995,6.67,10.7,6.293,13a1.442,1.442,0,0,0,1.268-.387,4.952,4.952,0,0,0,.689-.88,10.8,10.8,0,0,1,3.482-3.481,5.292,5.292,0,0,0,.733-.528A1.578,1.578,0,0,0,13,6.269" transform="translate(0 0)" fill="#1d0d63"/>
    <path id="Path_7395" data-name="Path 7395" d="M115.921,123.242a7.5,7.5,0,1,1,10.633,6.832.685.685,0,0,1-.764-.03.594.594,0,0,1-.224-.612c.051-.278.264-.405.5-.515a6.184,6.184,0,0,0,2.765-2.535,6.251,6.251,0,1,0-8.1,2.514c.056.027.114.051.169.081a.632.632,0,0,1,.325.862.62.62,0,0,1-.857.266,7.491,7.491,0,0,1-4.442-6.861" transform="translate(-106.241 -106.087)" fill="#1d0d63"/>
    <path id="Path_7396" data-name="Path 7396" d="M175.842,178.223a2.5,2.5,0,0,1,5,.014,2.5,2.5,0,1,1-5-.014m1.25.025a1.25,1.25,0,0,0,1.254,1.243,1.271,1.271,0,0,0,1.243-1.264,1.249,1.249,0,0,0-1.264-1.233,1.23,1.23,0,0,0-1.233,1.254" transform="translate(-161.158 -161.07)" fill="#1d0d63"/>
    <path id="Path_7397" data-name="Path 7397" d="M315.616,192.756c0,.552-.446.886-.84.68-.734-.386-1.449-.81-2.158-1.241a.574.574,0,0,1-.175-.8.588.588,0,0,1,.779-.261q1.093.6,2.153,1.25c.136.085.195.3.241.37" transform="translate(-286.271 -175.117)" fill="#1d0d63"/>
    <path id="Path_7398" data-name="Path 7398" d="M63.161,192.836a.647.647,0,0,1-.9.589c-.733-.387-1.449-.81-2.157-1.242a.576.576,0,0,1-.178-.776.585.585,0,0,1,.77-.285q1.109.6,2.181,1.263c.135.084.19.3.282.451" transform="translate(-54.852 -175.109)" fill="#1d0d63"/>
    <path id="Path_7399" data-name="Path 7399" d="M76.714,262.433c-.374,0-.748.006-1.121,0a.623.623,0,1,1,.008-1.245q1.121-.012,2.243,0a.624.624,0,1,1-.008,1.246c-.374.006-.748,0-1.121,0" transform="translate(-68.68 -239.37)" fill="#1d0d63"/>
    <path id="Path_7400" data-name="Path 7400" d="M302.375,252.461a1.963,1.963,0,0,1-.473-.393c-.4-.643-.771-1.3-1.142-1.964a.623.623,0,0,1,.2-.874.616.616,0,0,1,.88.253c.387.651.771,1.3,1.136,1.968a.681.681,0,0,1-.6,1.01" transform="translate(-275.554 -228.33)" fill="#1d0d63"/>
    <path id="Path_7401" data-name="Path 7401" d="M261.308,295.267c0-.365-.005-.729,0-1.094a.642.642,0,0,1,.622-.683.63.63,0,0,1,.625.676q.009,1.109,0,2.219a.625.625,0,1,1-1.246.006c-.007-.375,0-.75,0-1.125" transform="translate(-239.485 -268.983)" fill="#1d0d63"/>
    <path id="Path_7402" data-name="Path 7402" d="M249.886,84.189a.616.616,0,0,1-.605-.423.546.546,0,0,1,.209-.69q1.062-.649,2.156-1.246a.591.591,0,0,1,.763.238.574.574,0,0,1-.12.786c-.731.453-1.485.87-2.232,1.3a.563.563,0,0,1-.17.038" transform="translate(-228.425 -74.94)" fill="#1d0d63"/>
    <path id="Path_7403" data-name="Path 7403" d="M193.759,312.992a2.12,2.12,0,0,1-.132.328q-.528.935-1.072,1.861a.629.629,0,1,1-1.083-.621q.545-.961,1.105-1.914a.6.6,0,0,1,.708-.32.643.643,0,0,1,.473.666" transform="translate(-175.376 -286.224)" fill="#1d0d63"/>
    <path id="Path_7404" data-name="Path 7404" d="M123.626,302.811a.622.622,0,0,1-.611-.406.539.539,0,0,1,.191-.695q1.072-.661,2.181-1.261a.583.583,0,0,1,.771.281.589.589,0,0,1-.173.779c-.709.431-1.434.836-2.155,1.246a.73.73,0,0,1-.2.056" transform="translate(-112.696 -275.306)" fill="#1d0d63"/>
    <path id="Path_7405" data-name="Path 7405" d="M295.375,136.149c-.375,0-.75.008-1.125,0a.618.618,0,1,1-.028-1.234q1.171-.029,2.343,0a.593.593,0,0,1,.608.65.6.6,0,0,1-.641.584c-.385.009-.771,0-1.156,0" transform="translate(-269.086 -123.633)" fill="#1d0d63"/>
    <path id="Path_7406" data-name="Path 7406" d="M191.864,63.1a.67.67,0,0,1-.583-.929c.384-.724.8-1.429,1.229-2.129a.584.584,0,0,1,.8-.182.6.6,0,0,1,.253.806c-.389.709-.79,1.413-1.218,2.1-.095.152-.317.225-.481.335" transform="translate(-175.247 -54.779)" fill="#1d0d63"/>
    <path id="Path_7407" data-name="Path 7407" d="M153.463,172.016a.61.61,0,0,1,.606.615.628.628,0,0,1-.634.627.642.642,0,0,1-.611-.624.621.621,0,0,1,.639-.619" transform="translate(-140.062 -157.651)" fill="#1d0d63"/>
    <path id="Path_7408" data-name="Path 7408" d="M224.524,153.337a.621.621,0,0,1,.613-.614.641.641,0,0,1,.629.637.629.629,0,0,1-.621.609.611.611,0,0,1-.621-.632" transform="translate(-205.775 -139.97)" fill="#1d0d63"/>
    <path id="Path_7409" data-name="Path 7409" d="M172.113,153.346a.621.621,0,0,1,.6-.622.641.641,0,0,1,.638.629.631.631,0,0,1-.645.617.609.609,0,0,1-.6-.623" transform="translate(-157.741 -139.97)" fill="#1d0d63"/>
    <path id="Path_7410" data-name="Path 7410" d="M153.449,224.422a.609.609,0,0,1,.623.6.631.631,0,0,1-.617.645.638.638,0,0,1-.628-.638.619.619,0,0,1,.621-.6" transform="translate(-140.065 -205.681)" fill="#1d0d63"/>
    <path id="Path_7411" data-name="Path 7411" d="M146.545,198.222a.623.623,0,0,1,.609.624.643.643,0,0,1-.625.618.625.625,0,0,1-.617-.649.6.6,0,0,1,.632-.593" transform="translate(-133.728 -181.669)" fill="#1d0d63"/>
    <path id="Path_7412" data-name="Path 7412" d="M250.734,198.835a.6.6,0,0,1,.6-.624.624.624,0,0,1,.639.626.641.641,0,0,1-.626.616.625.625,0,0,1-.616-.619" transform="translate(-229.796 -181.66)" fill="#1d0d63"/>
    <path id="Path_7413" data-name="Path 7413" d="M198.319,281.168a.6.6,0,0,1,.621-.6.624.624,0,0,1,.622.613.642.642,0,0,1-.645.629.623.623,0,0,1-.6-.637" transform="translate(-181.758 -257.134)" fill="#1d0d63"/>
    <path id="Path_7414" data-name="Path 7414" d="M198.319,146.433a.6.6,0,0,1,.609-.616.624.624,0,0,1,.633.6.643.643,0,0,1-.633.641.626.626,0,0,1-.609-.626" transform="translate(-181.758 -133.64)" fill="#1d0d63"/>
    <path id="Path_7415" data-name="Path 7415" d="M198.317,251.227a.6.6,0,0,1,.62-.606.624.624,0,0,1,.623.612.642.642,0,0,1-.644.63.624.624,0,0,1-.6-.636" transform="translate(-181.757 -229.693)" fill="#1d0d63"/>
    <path id="Path_7416" data-name="Path 7416" d="M244.86,225.026a.621.621,0,0,1-.6.637.639.639,0,0,1-.643-.63.62.62,0,0,1,.62-.613.6.6,0,0,1,.62.605" transform="translate(-223.277 -205.681)" fill="#1d0d63"/>
    <path id="Path_7417" data-name="Path 7417" d="M172.72,244.75a.6.6,0,0,1-.609-.617.621.621,0,0,1,.61-.623.639.639,0,0,1,.632.64.618.618,0,0,1-.633.6" transform="translate(-157.739 -223.176)" fill="#1d0d63"/>
    <path id="Path_7418" data-name="Path 7418" d="M225.135,244.747a.6.6,0,0,1-.612-.614.622.622,0,0,1,.607-.626.639.639,0,0,1,.636.637.622.622,0,0,1-.631.6" transform="translate(-205.774 -223.173)" fill="#1d0d63"/>
    <path id="Path_7419" data-name="Path 7419" d="M244.231,172.013a.6.6,0,0,1,.627.6.622.622,0,0,1-.589.644.637.637,0,0,1-.65-.622.622.622,0,0,1,.612-.621" transform="translate(-223.275 -157.649)" fill="#1d0d63"/>
    <path id="Path_7420" data-name="Path 7420" d="M48.6,111.435a.615.615,0,0,1,.634.59.63.63,0,0,1-.605.656.641.641,0,0,1-.639-.627.625.625,0,0,1,.611-.618" transform="translate(-43.984 -102.13)" fill="#1d0d63"/>
    <path id="Path_7421" data-name="Path 7421" d="M111.522,48.514a.626.626,0,0,1,.632-.6.639.639,0,0,1,.612.653.632.632,0,0,1-.638.592.614.614,0,0,1-.606-.648" transform="translate(-102.209 -43.916)" fill="#1d0d63"/>
  </g>
</svg>
