<svg id="Group_2038" data-name="Group 2038" xmlns="http://www.w3.org/2000/svg" xmlns:xlink="http://www.w3.org/1999/xlink" width="57.438" height="34.144" viewBox="0 0 57.438 34.144">
  <defs>
    <clipPath id="clip-path">
      <rect id="Rectangle_919" data-name="Rectangle 919" width="57.438" height="34.144" fill="#1d0d63"/>
    </clipPath>
  </defs>
  <g id="Group_2037" data-name="Group 2037" clip-path="url(#clip-path)">
    <path id="Path_7355" data-name="Path 7355" d="M57.336,7.78l-.162-.322q-.35-.7-.7-1.4a.853.853,0,0,0-.833-.519c-.386,0-.773,0-1.16,0-.764,0-1.554-.007-2.328.02a1.346,1.346,0,0,0-.777.316c-.636.569-.987.882-1.045,1.2s.127.673.546,1.488a.963.963,0,0,1-.2,1.288L50.53,10l-.1-.189q-.2-.406-.4-.8c-.285-.572-.554-1.113-.838-1.658A11.662,11.662,0,0,0,39.9.746C38.1.521,36.249.415,34.458.312,33.9.28,33.336.248,32.776.212c-.335-.021-.67-.045-1.005-.069A33.183,33.183,0,0,0,28.029.016C26.077.1,24.093.243,22.175.383c-1.221.089-2.484.18-3.728.256a11.9,11.9,0,0,0-8.113,3.693A16.518,16.518,0,0,0,7.55,8.708l-.223.448c-.072.145-.147.288-.226.439l-.218.422-.151-.166a.941.941,0,0,1-.163-1.3,2.364,2.364,0,0,0,.19-.359c.03-.064.059-.129.091-.191.022-.044.046-.089.07-.134.216-.408.331-.675.116-.945-.081-.1-.16-.208-.24-.316-.361-.486-.734-.99-1.337-1.033-.911-.065-1.846-.049-2.75-.034-.36.006-.72.012-1.08.014a.643.643,0,0,0-.221.057,5.74,5.74,0,0,0-1.4,2.73A3.029,3.029,0,0,0,1.911,9.892c.516,0,1.032,0,1.548,0h.664c.918,0,1.01.072,1.216.963l.025.109-.1.059c-.258.16-.528.309-.789.453a7.294,7.294,0,0,0-1.615,1.084,8.077,8.077,0,0,0-1.173,1.633c-.155.258-.316.526-.485.779a.544.544,0,0,1-.034.045.178.178,0,0,0-.016.021c-.023.077-.057.163-.09.25a1.512,1.512,0,0,0-.137.511C.915,19.529.9,23.506.938,27.5a2.381,2.381,0,0,0,.4,1.372,2.67,2.67,0,0,1,.514,1.942c-.01.22-.009.463,0,.743A2.659,2.659,0,0,0,4.4,34.119c.206.01.419.009.624.007h.242c.233,0,.466,0,.7-.007s.454-.007.685-.007c.279,0,.56.005.838.023A2.886,2.886,0,0,0,10.8,32.1l.04-.115.474.043c.259.023.511.046.764.073l.256.028a4.108,4.108,0,0,0,2.7-.3,10.057,10.057,0,0,1,1.437-.646c.215-.083.437-.17.653-.261l.125-.053.069.116c.027.046.053.084.075.118a.851.851,0,0,1,.115.215c.22.7.648.959,1.575.959h.025c7.371-.037,13.385-.035,18.928.006,1.035.006,1.7-.181,2-1.166a.234.234,0,0,1,.15-.14c.017-.008.038-.017.06-.029l.066-.037.07.03c.246.1.493.212.742.32.617.269,1.256.547,1.9.788a2.9,2.9,0,0,0,1.117.156c.539-.024,1.065-.083,1.623-.145.229-.026.459-.051.69-.075l.116-.012.044.108a2.72,2.72,0,0,0,2.913,2.042l.924,0c.785,0,1.6,0,2.393,0a2.653,2.653,0,0,0,2.736-2.71c0-.172,0-.345,0-.518,0-.29-.007-.591.013-.888a1.318,1.318,0,0,1,.251-.707,2.993,2.993,0,0,0,.673-1.947q0-2.759,0-5.517,0-2.979,0-5.958a1.18,1.18,0,0,0-.1-.586c-.175-.266-.345-.542-.51-.81-.853-1.385-1.659-2.693-3.344-3.174a1.149,1.149,0,0,1-.317-.166c-.037-.025-.075-.05-.112-.072l-.11-.064.041-.121c.322-.947.383-.993,1.3-.993.138,0,.276-.006.415-.012a4.485,4.485,0,0,1,.949.026,2.422,2.422,0,0,0,2.451-1.116.845.845,0,0,0,.162-1.011M8.741,9.973c1.746-4.7,5.036-7.387,9.516-7.758,2.71-.224,6.282-.5,9.88-.656a29.587,29.587,0,0,1,3.5.129c.408.031.816.063,1.224.088,2.168.134,4.183.273,6.158.424a10.256,10.256,0,0,1,8.523,5.346c.3.514.558,1.043.833,1.6.129.263.261.532.4.807l.115.226H8.663Zm39.5,1.833-1.389,1.385c-1.511,1.507-2.938,2.93-4.4,4.368a1.473,1.473,0,0,1-.626.317c-.506.147-1.019.306-1.515.461a32.489,32.489,0,0,1-3.812,1.019,13.225,13.225,0,0,1-2.343.26,5.4,5.4,0,0,1-2.788-.7A3.439,3.439,0,0,0,30.06,18.6a6.022,6.022,0,0,0-.806-.013,7.151,7.151,0,0,1-.759-.006,4.919,4.919,0,0,0-3.332.759.742.742,0,0,1-.409.16c-.371-.008-.753,0-1.122,0a13.331,13.331,0,0,1-2.721-.152,38.423,38.423,0,0,1-3.868-1.046c-.477-.147-.971-.3-1.457-.441a1.382,1.382,0,0,1-.618-.334C13.6,16.1,12.263,14.693,10.847,13.2l-1.32-1.393ZM5.29,7.6c-.055.065-.107.141-.162.222a1.1,1.1,0,0,1-.5.483,1.6,1.6,0,0,1-.495.067c-.121,0-.242-.008-.362-.015-.215-.014-.41-.015-.611-.009a4.274,4.274,0,0,1-.678-.017,1.325,1.325,0,0,1-.438-.167c-.054-.028-.107-.056-.162-.08L1.692,8l.135-.159A2.6,2.6,0,0,0,2,7.6c.146-.22.3-.448.519-.473a13.491,13.491,0,0,1,2-.029l.221.008a.742.742,0,0,1,.386.172,1.481,1.481,0,0,0,.125.082l.165.092ZM2.463,27.3c.015-1.325.012-2.657.01-3.946q0-.753,0-1.491v-.376L5.75,24.77l-.08.108c-.105.142-.217.3-.333.457-.285.395-.608.842-.959,1.265a2.181,2.181,0,0,0-.623,2.022l.069.3L3.54,28.8a1.5,1.5,0,0,1-1.077-1.5m6.506,5c-.093.027-.186.061-.278.1a2.181,2.181,0,0,1-.677.168c-.535.015-1.075.02-1.612.02-.463,0-.922,0-1.375-.007l-.326,0a1.281,1.281,0,0,1-1.012-.365,1.427,1.427,0,0,1-.234-1.162l.034-.266.214.162a3.411,3.411,0,0,0,2.02.526,8.291,8.291,0,0,1,.963.086c.5.085,1.023.13,1.526.174.23.02.46.04.69.063l.115.012.088.458Zm38.344-1.95-.643.066c-.74.077-1.505.157-2.262.2a3.058,3.058,0,0,1-1.289-.194c-1.4-.579-2.767-1.169-4.211-1.793l-1.354-.585-.6,1.413,1.721.783-.107.391h-19.7l-.085-.4,1.7-.763-.6-1.413-.411.172c-.415.173-.82.342-1.222.515-.25.107-.5.21-.753.313-.6.245-1.215.5-1.794.8a6.247,6.247,0,0,1-4,.673c-1.439-.223-2.926-.351-4.364-.475-.622-.054-1.264-.109-1.9-.171l-.13-.013L5.3,29.618a2.849,2.849,0,0,1,.594-2.465,8.242,8.242,0,0,0,.766-.97c.183-.257.372-.523.581-.768a1.023,1.023,0,0,1,.8-.338c2.383.352,4.8.726,7.144,1.088l2.8.432a5.621,5.621,0,0,0,.844.069q2.393,0,4.786.007c4.9.009,9.969.018,14.953-.032a20.83,20.83,0,0,0,3.276-.387c.41-.07.834-.143,1.251-.206.927-.138,1.852-.282,2.778-.427,1.162-.181,2.363-.369,3.547-.54a.958.958,0,0,1,.755.307c.2.237.384.492.561.739a8.525,8.525,0,0,0,.716.909,2.861,2.861,0,0,1,.654,2.707l-.02.117-1.457.15q-1.653.17-3.318.338m6.437,1.863a1.412,1.412,0,0,1-1.09.361l-.6,0c-.364,0-.733,0-1.1,0-.516,0-1.036,0-1.55-.017a2.221,2.221,0,0,1-.656-.153c-.09-.031-.18-.062-.27-.086l-.125-.035.041-.456.122-.018.27-.042c.2-.031.4-.063.6-.084.367-.038.735-.072,1.1-.107.7-.065,1.42-.133,2.125-.224a4.025,4.025,0,0,0,.783-.215c.132-.046.266-.092.406-.134l.182-.055.017.19a1.343,1.343,0,0,1-.251,1.068m.17-3.426-.271.116.057-.289a2.63,2.63,0,0,0-.89-2.324,7.15,7.15,0,0,1-.619-.819A5,5,0,0,0,51.859,25c-.055-.07-.109-.139-.16-.208l-.08-.108,3.273-3.28.03.331c0,.045.009.09.015.135a2.712,2.712,0,0,1,.024.31q0,.823,0,1.647c0,1.119,0,2.277.011,3.415a1.5,1.5,0,0,1-1.051,1.541m.845-13.2a1.734,1.734,0,0,1,.19.719c.023.79.038,1.5-.008,2.226a1.509,1.509,0,0,1-.383.891c-1.105,1.145-2.283,2.325-3.5,3.506a1.717,1.717,0,0,1-.877.439c-3.581.573-7.226,1.134-10.75,1.676l-.227.035a4.686,4.686,0,0,1-.72.039q-2.484,0-4.967.006c-1.8,0-3.623.006-5.456.006-3.021,0-6.068-.008-9.084-.039a20.456,20.456,0,0,1-3.27-.39c-.407-.071-.829-.144-1.242-.206-2.554-.383-4.923-.752-7.242-1.13a1.62,1.62,0,0,1-.829-.408c-1.211-1.177-2.417-2.383-3.585-3.585a1.339,1.339,0,0,1-.275-.581c-.018-.061-.035-.121-.055-.178a.534.534,0,0,1-.015-.224.467.467,0,0,0,0-.093,5.212,5.212,0,0,1,1.36-4.45,2.679,2.679,0,0,1,.678-.592c.659-.35,1.313-.674,2.006-1.017l.768-.381.1-.051.079.084c.482.508.978,1.015,1.459,1.505,1.092,1.114,2.22,2.267,3.225,3.485a8.279,8.279,0,0,0,5.176,3.11,6.776,6.776,0,0,1,1.487.422,13.942,13.942,0,0,0,5.908.654l.219-.007A2.889,2.889,0,0,0,26.11,20.6l.038-.021a3.1,3.1,0,0,1,1.861-.44,4.226,4.226,0,0,0,.842,0,4.6,4.6,0,0,1,2.92.674,2.6,2.6,0,0,0,1.038.255,19.377,19.377,0,0,0,6.9-.931l.407-.105a9.862,9.862,0,0,0,5.231-3.106c.941-1.076,1.984-2.089,2.992-3.07.514-.5,1.045-1.016,1.556-1.534a.645.645,0,0,1,.941-.138,1.583,1.583,0,0,0,.425.211,6.014,6.014,0,0,1,3.5,3.187m.77-7.332c-.063.01-.124.021-.183.033a2.3,2.3,0,0,1-.4.052c-.213,0-.428,0-.636-.005a9.146,9.146,0,0,0-1.087.021,1.658,1.658,0,0,1-.167.009c-.7,0-.883-.5-.97-1l-.027-.156.157-.024c.059-.009.117-.02.175-.031a2.347,2.347,0,0,1,.394-.051c.21,0,.423,0,.628.006a8.234,8.234,0,0,0,1.094-.023c.8-.09,1.025.418,1.147.98l.035.161Z" transform="translate(0 -0.001)" fill="#1d0d63"/>
    <path id="Path_7356" data-name="Path 7356" d="M36.02,96.389c-1.774-1.169-3.722-2.441-6.131-4a2.478,2.478,0,0,0-.419-.2l-.1-.043a.8.8,0,0,0-.86.782c-.048.68-.088,1.361-.129,2.042-.038.635-.076,1.27-.12,1.9a.943.943,0,0,0,.518.957c1.32.792,2.392,1.449,3.372,2.068a.959.959,0,0,0,1.217-.031c.486-.356.986-.71,1.47-1.052.41-.29.82-.58,1.227-.875a1.022,1.022,0,0,0,.52-.781,1.037,1.037,0,0,0-.563-.766m-3.3,2.026-.088-.054-.623-.38c-.615-.375-1.252-.762-1.864-1.159a.769.769,0,0,1-.293-.6c.006-.375.039-.754.075-1.156.014-.163.029-.332.043-.509l.021-.262,4.424,2.894Z" transform="translate(-23.86 -77.805)" fill="#be1e2d"/>
    <path id="Path_7357" data-name="Path 7357" d="M295.613,95.585c-.056-.846-.109-1.644-.158-2.443a1.013,1.013,0,0,0-.441-.9.621.621,0,0,0-.282-.064,1.253,1.253,0,0,0-.661.233c-2.027,1.317-4.106,2.676-6.178,4.04a.981.981,0,0,0-.53.736,1,1,0,0,0,.509.772c.345.249.693.494,1.041.74.531.374,1.079.761,1.609,1.156a1.022,1.022,0,0,0,1.314.053c.975-.626,2.015-1.288,3.08-1.886.655-.369.9-.778.775-1.289l0-.027ZM293.8,96.865c-.623.395-1.267.787-1.888,1.166l-.682.416-1.7-1.22,4.42-2.888.02.262c.013.172.027.339.041.5.037.443.072.861.085,1.28a.646.646,0,0,1-.3.484" transform="translate(-242.657 -77.839)" fill="#be1e2d"/>
    <rect id="Rectangle_918" data-name="Rectangle 918" width="1.498" height="1.468" transform="translate(27.952 21.435)" fill="#be1e2d"/>
  </g>
</svg>
