<svg id="Group_2064" data-name="Group 2064" xmlns="http://www.w3.org/2000/svg" xmlns:xlink="http://www.w3.org/1999/xlink" width="21.578" height="21.214" viewBox="0 0 21.578 21.214">
  <defs>
    <clipPath id="clip-path">
      <rect id="Rectangle_925" data-name="Rectangle 925" width="21.578" height="21.214" fill="#fff"/>
    </clipPath>
  </defs>
  <g id="Group_2063" data-name="Group 2063" clip-path="url(#clip-path)">
    <path id="Path_7379" data-name="Path 7379" d="M9.576,18.633H3.219A2.654,2.654,0,0,1,.736,16.217V2.725C.736,1.5,2.025.736,3.219.736H13.927A1.815,1.815,0,0,1,15.85,2.725v7.707a.368.368,0,0,0,.736,0V2.725A2.763,2.763,0,0,0,15.86.746,2.62,2.62,0,0,0,13.927,0H3.219C1.671,0,0,1.042,0,2.725V16.217a3.162,3.162,0,0,0,1.084,2.251.369.369,0,0,0-.046.117l-.014.064a1.029,1.029,0,0,0-.027.3,2.112,2.112,0,0,0,2.061,2.091h0a1.945,1.945,0,0,0,2.055-1.583.367.367,0,0,0,0-.086H9.576a.368.368,0,1,0,0-.736m-6.5,1.679a1.369,1.369,0,0,1-1.334-1.36,2.991,2.991,0,0,0,1.477.417H4.376a1.188,1.188,0,0,1-1.3.943" fill="#fff"/>
    <path id="Path_7380" data-name="Path 7380" d="M101.577,32.946h5.785a1.317,1.317,0,0,0,.938-.388,1.335,1.335,0,0,0,.389-.938,1.327,1.327,0,0,0-1.326-1.326h-5.785a1.326,1.326,0,0,0,0,2.652m-.511-1.621a.592.592,0,0,1,.511-.3h5.785a.59.59,0,0,1,0,1.181h-5.785a.59.59,0,0,1-.511-.886" transform="translate(-95.963 -28.998)" fill="#fff"/>
    <path id="Path_7381" data-name="Path 7381" d="M52.843,106.637a.368.368,0,0,0,.363-.31l0,0v-3.479a2.763,2.763,0,0,0-.725-1.979,2.621,2.621,0,0,0-1.933-.746H43.258c-1.548,0-3.219,1.042-3.219,2.725V105.2a3.4,3.4,0,0,0,3.219,3.152h6.576a.368.368,0,0,0,0-.736H43.257a2.654,2.654,0,0,1-2.483-2.416v-2.355c0-1.229,1.289-1.989,2.483-1.989h7.295a1.815,1.815,0,0,1,1.922,1.989v3.426a.368.368,0,0,0,.368.368" transform="translate(-38.326 -95.835)" fill="#fff"/>
    <path id="Path_7382" data-name="Path 7382" d="M47.24,302.486a2.026,2.026,0,0,0,1.432,3.458h0a2.026,2.026,0,1,0-1.433-3.458m1.432,2.722a1.29,1.29,0,0,1-.111-2.575h.11a1.287,1.287,0,1,1,0,2.575" transform="translate(-44.651 -288.978)" fill="#fff"/>
    <path id="Path_7383" data-name="Path 7383" d="M257.914,265.028a1.54,1.54,0,0,0-.151-.617l-.64-1.253a.9.9,0,0,0-.084-.165l-.871-1.714,0-.005a2.067,2.067,0,0,0-1.713-1.049h-3.878a2.173,2.173,0,0,0-1.739,1.018l-.02.031v0l-.431.765-1.318,2.286,0,0a1.435,1.435,0,0,0-.166.628V268.5a.608.608,0,0,0,.607.608h.266c0,.006,0,.011,0,.017a1.185,1.185,0,0,0,1.186,1.183H249a1.185,1.185,0,0,0,1.233-1.183c0-.006,0-.011,0-.017h4.393c0,.006,0,.011,0,.017a1.185,1.185,0,0,0,1.23,1.182h.048a1.185,1.185,0,0,0,1.186-1.183c0-.006,0-.011,0-.017h.217a.608.608,0,0,0,.607-.608Zm-1.56,4.09a.5.5,0,0,1-.991,0s0-.008,0-.012h.993s0,.008,0,.012m-6.854,0a.5.5,0,0,1-.994,0s0-.007,0-.01h1s0,.007,0,.01m-1.048-5.71,0,0,.016-.014,1-1.767a1.446,1.446,0,0,1,1.114-.657l3.858.007a1.343,1.343,0,0,1,1.07.652l.88,1.729.009.01.044.086a.18.18,0,0,1-.223.212l-.016,0H248.63l-.021.007a.153.153,0,0,1-.2-.179Zm-.809,1.558a.7.7,0,0,1,.073-.271l.278-.487.021.017a.882.882,0,0,0,.531.178.864.864,0,0,0,.114-.007h7.659v-.005a.9.9,0,0,0,.5-.179l.009-.008.277.543a.826.826,0,0,1,.071.291v3.334h-9.534Z" transform="translate(-236.337 -249.093)" fill="#fff"/>
    <path id="Path_7384" data-name="Path 7384" d="M287.951,379.34h0a1.016,1.016,0,0,0-.713.295,1,1,0,0,0-.3.714,1.01,1.01,0,0,0,1.01,1.011,1,1,0,0,0,.713-.295,1.01,1.01,0,0,0,0-1.428,1,1,0,0,0-.714-.3m-.255.9a.274.274,0,0,1,.217-.166h.036a.272.272,0,1,1-.253.166" transform="translate(-274.664 -363.112)" fill="#fff"/>
    <path id="Path_7385" data-name="Path 7385" d="M428.119,379.341a1.01,1.01,0,1,0,.714.3,1,1,0,0,0-.714-.3m-.253.9a.273.273,0,0,1,.217-.167h.036a.272.272,0,1,1-.253.167" transform="translate(-408.838 -363.113)" fill="#fff"/>
  </g>
</svg>
