<svg id="Group_2079" data-name="Group 2079" xmlns="http://www.w3.org/2000/svg" xmlns:xlink="http://www.w3.org/1999/xlink" width="37.719" height="32" viewBox="0 0 37.719 32">
  <defs>
    <clipPath id="clip-path">
      <rect id="Rectangle_932" data-name="Rectangle 932" width="37.719" height="32" fill="#1d0d63"/>
    </clipPath>
  </defs>
  <g id="Group_2078" data-name="Group 2078" clip-path="url(#clip-path)">
    <path id="Path_7426" data-name="Path 7426" d="M0,8.038a5.637,5.637,0,0,1,.331-.684,2,2,0,0,1,1.776-.931H2.64c0-.285.016-.551,0-.815A2.337,2.337,0,0,1,4.651,3c0-.284,0-.576,0-.868A2.055,2.055,0,0,1,6.788,0a5,5,0,0,1,.918.035A2.026,2.026,0,0,1,9.365,2.014c.008.317,0,.634,0,1h1.821c.912,0,.911,0,1.19-.884.092-.292.182-.585.282-.875A1.394,1.394,0,0,1,14.17.175c1.854,0,3.708,0,5.561,0,1.252,0,2.5,0,3.757,0a1.442,1.442,0,0,1,1.6,1.166c.158.477.3.96.462,1.434.033.095.141.231.217.232.844.017,1.688.011,2.582.011,0-.323,0-.613,0-.9A2.03,2.03,0,0,1,30.464,0a4.928,4.928,0,0,1,.954.041,2.042,2.042,0,0,1,1.65,1.99c.011.318,0,.636,0,.969,1.9.4,2.144,1.787,1.991,3.424a2.392,2.392,0,0,1,2.187.724A1.982,1.982,0,0,1,37.719,8.4c.023,1.064-.65,1.8-1.941,2.094v.381q0,7.274-.005,14.548a.548.548,0,0,0,.325.57,1.528,1.528,0,0,1,.82,1.39q.019,1.768,0,3.536a1.022,1.022,0,0,1-1.068,1.067c-.1,0-.2,0-.295,0q-16.831,0-33.662.012C.855,32,.475,31.419.508,30.626c.041-1.005.009-2.013.01-3.02A1.733,1.733,0,0,1,1.74,25.8a.467.467,0,0,0,.2-.244.682.682,0,0,0,.007-.255V10.479A2.178,2.178,0,0,1,0,8.848v-.81M35.82,30.877c0-1.19.01-2.342-.006-3.494a.545.545,0,0,0-.579-.549c-.343-.02-.688-.016-1.031,0a.59.59,0,0,0-.618.633c-.009.258,0,.516,0,.774,0,.65-.156.806-.8.806H20.554a2.361,2.361,0,0,1-.331-.009.506.506,0,0,1-.468-.489.49.49,0,0,1,.382-.555,1.826,1.826,0,0,1,.473-.042q5.71,0,11.419,0h.419c.219-1.819.329-1.93,2.212-2.263V10.469H20.681c-.664,0-.94-.166-.933-.56s.275-.542.915-.542H35.4c.123,0,.246.005.368,0a.924.924,0,0,0,.846-.789.892.892,0,0,0-.639-.992,2.138,2.138,0,0,0-.581-.056q-16.54,0-33.08,0a3.061,3.061,0,0,0-.4.011.919.919,0,0,0,.059,1.829c.122.009.245,0,.368,0h15.1c.581,0,.832.16.842.535.011.391-.251.567-.846.567H3.059V25.717a1.894,1.894,0,0,1,1.5.612,2.219,2.219,0,0,1,.413,1.619H17.423c.6,0,.861.168.858.558s-.244.537-.869.537H4.593c-.538,0-.707-.167-.715-.7,0-.295.01-.59-.007-.884a.609.609,0,0,0-.663-.634c-.282-.009-.565-.005-.847,0-.522.006-.739.22-.741.74q0,1.51,0,3.021c0,.094.016.188.025.289ZM33.967,6.413c0-.472.028-.913-.008-1.349a.938.938,0,0,0-.61-.815,2.328,2.328,0,0,0-.823-.13Q18.86,4.11,5.2,4.115c-.135,0-.27,0-.4.009a1.047,1.047,0,0,0-.99.8,10.422,10.422,0,0,0-.016,1.491ZM13.255,3H24.464c-.162-.508-.3-.991-.48-1.456a.5.5,0,0,0-.376-.255q-4.747-.021-9.495,0a.5.5,0,0,0-.377.254c-.183.464-.318.948-.481,1.457M8.221,3c.187-.887.05-1.477-.4-1.759A2.008,2.008,0,0,0,6.128,1.3c-.573.474-.331,1.11-.372,1.7Zm21.231-.012h2.526c-.062-.642.222-1.377-.505-1.749a1.59,1.59,0,0,0-1.617.047c-.636.417-.353,1.1-.4,1.7" transform="translate(0 0)" fill="#1d0d63"/>
    <path id="Path_7427" data-name="Path 7427" d="M151.067,140.309c-.728,0-1.4,0-2.073,0a5.352,5.352,0,0,1-.734-.038.736.736,0,0,1-.6-1.113,2.8,2.8,0,0,1,.319-.492q2.044-2.676,4.1-5.346a2.81,2.81,0,0,1,.535-.552.612.612,0,0,1,1.026.483,2.3,2.3,0,0,1-.088.652c-.268,1.131-.545,2.26-.831,3.438.153.009.28.022.408.023.687,0,1.375,0,2.062,0,.39,0,.777.04.977.447a.924.924,0,0,1-.229,1.017q-2.106,2.768-4.226,5.526c-.03.039-.061.077-.094.113-.378.423-.756.554-1.09.379s-.424-.52-.29-1.08c.242-1.013.491-2.024.736-3.037.029-.118.052-.238.092-.421m3.762-1.825c-.147-.016-.228-.032-.309-.032-.638,0-1.276,0-1.914,0-.9-.006-1.191-.375-.981-1.258.161-.678.331-1.353.5-2.03l-.056-.03-3.125,4.08h1.882c1.277,0,1.567.371,1.263,1.6-.138.559-.269,1.119-.4,1.679l.064.025,3.083-4.032" transform="translate(-133.043 -119.558)" fill="#1d0d63"/>
    <path id="Path_7428" data-name="Path 7428" d="M284.16,148.537c-.1.488.161,1.186-.586,1.189s-.468-.7-.582-1.183c-.2,0-.406.013-.608,0a.55.55,0,0,1-.565-.556.539.539,0,0,1,.581-.532c.193-.009.387,0,.629,0,0-.241-.007-.446,0-.65a.547.547,0,0,1,.512-.567.558.558,0,0,1,.576.547c.017.205,0,.413,0,.671.24,0,.445-.009.649,0a.54.54,0,0,1,.037,1.079,6.39,6.39,0,0,1-.648,0" transform="translate(-254.082 -131.839)" fill="#1d0d63"/>
    <path id="Path_7429" data-name="Path 7429" d="M63.124,159.655c-.331,0-.663.013-.994,0a.563.563,0,0,1-.588-.575.554.554,0,0,1,.6-.514c.663-.009,1.326-.01,1.988,0a.519.519,0,0,1,.579.529.544.544,0,0,1-.558.56.679.679,0,0,1-.074,0h-.957v0" transform="translate(-55.484 -142.951)" fill="#1d0d63"/>
  </g>
</svg>
