<svg id="Group_2072" data-name="Group 2072" xmlns="http://www.w3.org/2000/svg" xmlns:xlink="http://www.w3.org/1999/xlink" width="27.929" height="32" viewBox="0 0 27.929 32">
  <defs>
    <clipPath id="clip-path">
      <rect id="Rectangle_929" data-name="Rectangle 929" width="27.929" height="32" fill="#1d0d63"/>
    </clipPath>
  </defs>
  <g id="Group_2071" data-name="Group 2071" clip-path="url(#clip-path)">
    <path id="Path_7393" data-name="Path 7393" d="M25.189,22.826A3.49,3.49,0,0,1,27.747,25.6a6.048,6.048,0,0,1-.457,4.3,3.974,3.974,0,0,1-3.556,2.084q-9.785.034-19.57,0a4.181,4.181,0,0,1-4.147-4.16,12.6,12.6,0,0,1,.032-1.8,3.652,3.652,0,0,1,2.6-3.176c.039-.013.077-.03.05-.02a21.8,21.8,0,0,1-.547-2.16,11.134,11.134,0,0,1,.168-3.849c.441-2.209.957-4.4,1.476-6.6a2.5,2.5,0,0,1,2.545-1.96A.777.777,0,0,0,6.977,8a2.4,2.4,0,0,1,1.784-.768c.513-.007,1.026,0,1.554,0V6.193c-.166,0-.334,0-.5,0A1.54,1.54,0,0,1,8.27,4.657q-.017-1.564,0-3.128A1.522,1.522,0,0,1,9.791.006q4.143-.014,8.286,0a1.526,1.526,0,0,1,1.536,1.54c.011,1,.005,2,0,3a1.554,1.554,0,0,1-1.66,1.649h-.378V7.226c.421,0,.847.011,1.272,0a2.679,2.679,0,0,1,2.211.917.463.463,0,0,0,.308.113,2.589,2.589,0,0,1,2.789,2.237c.463,1.975.944,3.946,1.345,5.934a12.507,12.507,0,0,1,.23,4.23,20.358,20.358,0,0,1-.545,2.171M7.206,25.853c.529-.222,1.025-.42,1.51-.645a.427.427,0,0,0,.186-.291,38.079,38.079,0,0,0,.4-5.557q-.009-4.837,0-9.674V9.315h1.06c-.168,5.2.264,10.392-.379,15.522,2.662-.1,5.3-.106,7.858,0-.095-1.7-.25-3.416-.272-5.132-.044-3.364-.013-6.729-.013-10.093v-.3h1.032v.4q0,4.9,0,9.8a37.953,37.953,0,0,0,.4,5.428.37.37,0,0,0,.142.258c.5.228,1.018.434,1.53.649.011-.014.031-.029.034-.047a3.571,3.571,0,0,1,3.1-3.057.429.429,0,0,0,.278-.216,9.713,9.713,0,0,0,.576-1.562,10.339,10.339,0,0,0-.1-4.036c-.26-1.467-.626-2.916-.953-4.371-.155-.691-.334-1.377-.484-2.069a1.445,1.445,0,0,0-1.439-1.143v3.024H20.648c0-.8,0-1.588,0-2.372a1.567,1.567,0,0,0-1.736-1.735h-9.9a1.578,1.578,0,0,0-1.78,1.787c0,.771,0,1.541,0,2.321H6.22V9.327a1.445,1.445,0,0,0-1.431,1.144c-.172.687-.332,1.377-.488,2.068A37.767,37.767,0,0,0,3.135,18.7a6.831,6.831,0,0,0,.633,3.758.533.533,0,0,0,.44.31,3.4,3.4,0,0,1,1.974,1,3.609,3.609,0,0,1,1.024,2.08m2.6,4.075c-.39,0-.744.008-1.1,0a2.529,2.529,0,0,1-2.438-2.091,9.94,9.94,0,0,1-.061-1.477A2.6,2.6,0,0,0,3.85,23.746a2.573,2.573,0,0,0-2.735,2.167A11.786,11.786,0,0,0,1.05,27.84a3.142,3.142,0,0,0,3.1,3.115q9.783.019,19.567.005l.1,0a3.084,3.084,0,0,0,2.929-2.5,9.512,9.512,0,0,0,.007-2.6,2.544,2.544,0,0,0-5.024.039,7.5,7.5,0,0,0-.045,1.285c.023,1.873-1.457,3.083-3.595,2.694V28.9c.36,0,.7.008,1.043,0a1.533,1.533,0,0,0,1.509-1.564.5.5,0,0,0-.191-.353,6.811,6.811,0,0,0-3.664-1.166q-2.836-.046-5.673,0a6.82,6.82,0,0,0-3.692,1.179.466.466,0,0,0-.175.33,1.534,1.534,0,0,0,1.5,1.574c.35.011.7,0,1.06,0ZM13.94,5.162q2,0,4,0c.464,0,.645-.181.646-.643q0-1.419,0-2.838c0-.464-.181-.646-.643-.646q-4,0-8,0c-.464,0-.645.181-.646.642q0,1.4,0,2.806c0,.507.171.678.675.679q1.983,0,3.966,0M11.377,7.2H16.5V6.211H11.377Z" transform="translate(0 0)" fill="#1d0d63"/>
  </g>
</svg>
