<svg xmlns="http://www.w3.org/2000/svg" width="12.14" height="13.423" viewBox="0 0 12.14 13.423">
  <g id="Group_2107" data-name="Group 2107" transform="translate(-25.615 -50)">
    <g id="Group_148" data-name="Group 148" transform="translate(25.615 50)">
      <path id="Path_652" data-name="Path 652" d="M130.059,242.732a3.743,3.743,0,0,1-.569-.214,1.456,1.456,0,0,1-.7-1.564c0-.021.006-.042.012-.08h-.158c-1.021,0-2.043,0-3.064,0a1.389,1.389,0,0,1-.107-2.775c.334-.016.44-.128.441-.463,0-.807-.009-1.615,0-2.422a4.316,4.316,0,0,1,2.912-4.016c.036-.013.072-.028.111-.044a1.356,1.356,0,0,1,.619-1.641,1.283,1.283,0,0,1,1.488.076,1.375,1.375,0,0,1,.493,1.559c.029.013.06.027.091.039a4.3,4.3,0,0,1,2.9,3.493,4.25,4.25,0,0,1,.042.691c0,.759,0,1.519,0,2.278,0,.317.114.436.428.449a1.388,1.388,0,0,1,.165,2.752,1.966,1.966,0,0,1-.312.023q-1.506,0-3.012,0h-.126c0,.18.014.352,0,.522a1.466,1.466,0,0,1-1.227,1.314.332.332,0,0,0-.059.023Zm.18-2.647q2.331,0,4.662,0a.6.6,0,0,0,.62-.593.586.586,0,0,0-.579-.6,1.167,1.167,0,0,1-1.163-1.233c.014-.768.007-1.536,0-2.3a4.491,4.491,0,0,0-.054-.677,3.538,3.538,0,0,0-7.022.644c0,.781,0,1.563,0,2.344a1.552,1.552,0,0,1-.035.35,1.129,1.129,0,0,1-1.078.87.6.6,0,1,0,.015,1.2Zm0,.788c-.161,0-.323,0-.484,0a.136.136,0,0,0-.147.1.7.7,0,0,0,.206.825.688.688,0,0,0,.848.005.7.7,0,0,0,.215-.822.141.141,0,0,0-.155-.1C130.562,240.878,130.4,240.873,130.24,240.873Zm0-9.916c.139.007.278.02.417.016a.163.163,0,0,0,.123-.074.566.566,0,0,0-.192-.675.574.574,0,0,0-.7.011.566.566,0,0,0-.176.668.152.152,0,0,0,.113.07C129.96,230.977,130.1,230.964,130.238,230.957Z" transform="translate(-124.173 -229.309)" fill="#1d0d63"/>
    </g>
  </g>
</svg>
