<svg xmlns="http://www.w3.org/2000/svg" width="22.726" height="16.374" viewBox="0 0 22.726 16.374">
  <g id="Group_2056" data-name="Group 2056" transform="translate(-372.548 -85.126)">
    <g id="Group_5" data-name="Group 5" transform="translate(-7 50.511)">
      <path id="Line_2" data-name="Line 2" d="M19.726,1.5H0A1.5,1.5,0,0,1-1.5,0,1.5,1.5,0,0,1,0-1.5H19.726a1.5,1.5,0,0,1,1.5,1.5A1.5,1.5,0,0,1,19.726,1.5Z" transform="translate(400.774 49.489) rotate(180)" fill="#fff"/>
      <path id="Line_3" data-name="Line 3" d="M13.708,1.5H0A1.5,1.5,0,0,1-1.5,0,1.5,1.5,0,0,1,0-1.5H13.708a1.5,1.5,0,0,1,1.5,1.5A1.5,1.5,0,0,1,13.708,1.5Z" transform="translate(400.774 42.802) rotate(180)" fill="#fff"/>
      <path id="Line_4" data-name="Line 4" d="M19.726,1.5H0A1.5,1.5,0,0,1-1.5,0,1.5,1.5,0,0,1,0-1.5H19.726a1.5,1.5,0,0,1,1.5,1.5A1.5,1.5,0,0,1,19.726,1.5Z" transform="translate(400.774 36.116) rotate(180)" fill="#fff"/>
    </g>
  </g>
</svg>
