<svg xmlns="http://www.w3.org/2000/svg" xmlns:xlink="http://www.w3.org/1999/xlink" width="33" height="33" viewBox="0 0 33 33">
  <defs>
    <clipPath id="clip-path">
      <rect id="Rectangle_926" data-name="Rectangle 926" width="33" height="33" transform="translate(-0.551 -4)" fill="#1d0d63"/>
    </clipPath>
  </defs>
  <g id="Group_2066" data-name="Group 2066" transform="translate(0.551 3.622)">
    <g id="Group_2065" data-name="Group 2065" transform="translate(0 0.378)" clip-path="url(#clip-path)">
      <path id="Path_7386" data-name="Path 7386" d="M24.82,9.879h2.223a2.6,2.6,0,0,0,2.593-2.593V2.593A2.6,2.6,0,0,0,27.043,0H24.82a2.6,2.6,0,0,0-2.593,2.593V4.322H17.843a3.087,3.087,0,0,0-6.05,0H7.409V2.593A2.6,2.6,0,0,0,4.816,0H2.593A2.6,2.6,0,0,0,0,2.593V7.285A2.6,2.6,0,0,0,2.593,9.879H4.816A2.6,2.6,0,0,0,7.409,7.285V5.557h4.384A3.1,3.1,0,0,0,14.2,7.964V21.671a3.1,3.1,0,0,0-2.407,2.407H7.409V22.35a2.6,2.6,0,0,0-2.593-2.593H2.593A2.6,2.6,0,0,0,0,22.35v4.692a2.6,2.6,0,0,0,2.593,2.593H4.816a2.6,2.6,0,0,0,2.593-2.593V25.314h4.384a3.087,3.087,0,0,0,6.05,0h4.384v1.729a2.6,2.6,0,0,0,2.593,2.593h2.223a2.6,2.6,0,0,0,2.593-2.593V22.35a2.6,2.6,0,0,0-2.593-2.593H24.82a2.6,2.6,0,0,0-2.593,2.593v1.729H17.843a3.1,3.1,0,0,0-2.407-2.407V7.964a3.1,3.1,0,0,0,2.407-2.407h4.384V7.285A2.6,2.6,0,0,0,24.82,9.878ZM6.174,7.285A1.36,1.36,0,0,1,4.816,8.644H2.593A1.36,1.36,0,0,1,1.235,7.285V2.593A1.36,1.36,0,0,1,2.593,1.235H4.816A1.36,1.36,0,0,1,6.174,2.593Zm0,19.757A1.36,1.36,0,0,1,4.816,28.4H2.593a1.36,1.36,0,0,1-1.358-1.358V22.35a1.36,1.36,0,0,1,1.358-1.358H4.816A1.36,1.36,0,0,1,6.174,22.35ZM23.462,22.35a1.36,1.36,0,0,1,1.358-1.358h2.223A1.36,1.36,0,0,1,28.4,22.35v4.692A1.36,1.36,0,0,1,27.043,28.4H24.82a1.36,1.36,0,0,1-1.358-1.358ZM16.67,24.7a1.852,1.852,0,1,1-1.852-1.852A1.854,1.854,0,0,1,16.67,24.7M14.818,6.791A1.852,1.852,0,1,1,16.67,4.939a1.854,1.854,0,0,1-1.852,1.852m8.643-4.2A1.36,1.36,0,0,1,24.82,1.235h2.223A1.36,1.36,0,0,1,28.4,2.593V7.285a1.36,1.36,0,0,1-1.358,1.358H24.82a1.36,1.36,0,0,1-1.358-1.358Z" transform="translate(1 -2.188)" fill="#1d0d63"/>
    </g>
  </g>
</svg>
