<svg xmlns="http://www.w3.org/2000/svg" xmlns:xlink="http://www.w3.org/1999/xlink" width="76.925" height="21" viewBox="0 0 76.925 21">
  <defs>
    <clipPath id="clip-path">
      <rect id="Rectangle_213" data-name="Rectangle 213" width="76.925" height="21" fill="#fff"/>
    </clipPath>
  </defs>
  <g id="Group_121" data-name="Group 121" transform="translate(2 -10)">
    <g id="Group_120" data-name="Group 120" transform="translate(-2 10)" clip-path="url(#clip-path)">
      <path id="Path_124" data-name="Path 124" d="M82.04,24.687H80.106a1.121,1.121,0,0,0-1.049.683l-1.23,3.106-.229.58-.434,1.1a1.584,1.584,0,0,0,1.57,2.114h.348a.29.29,0,1,1,0,.578H77.586a2.111,2.111,0,0,1-2.093-2.819L77.051,26.1A1.058,1.058,0,0,0,76,24.688H74.068a1.12,1.12,0,0,0-1.049.684l-1.231,3.105-.229.581-.435,1.1a1.584,1.584,0,0,0,1.57,2.114h.344a.289.289,0,1,1,0,.577H71.5a2.112,2.112,0,0,1-2.093-2.817l.385-.97.234-.581L70.97,26.1a1.058,1.058,0,0,0-1.049-1.412H67.987a1.119,1.119,0,0,0-1.049.683l-1.631,4.119a2.782,2.782,0,0,0,.716,3.073,3.073,3.073,0,0,0,.647.463H62.776l.782-2.123a.987.987,0,0,0,.066-.268l.3-.748a1.056,1.056,0,0,0-1.047-1.41h-.518A3.155,3.155,0,0,0,59.4,30.4l-.768,1.935a.827.827,0,0,1-.775.505.782.782,0,0,1-.774-1.044l2.394-6.028a.823.823,0,0,1,.773-.5.78.78,0,0,1,.773,1.04.847.847,0,0,0,.839,1.13h2.3a1.041,1.041,0,0,0,.979-.638,1.583,1.583,0,0,0-1.569-2.115H56.745a1.676,1.676,0,0,0-1.57,1.022l-2.221,5.6a1.585,1.585,0,0,0,1.57,2.115h3.843l-.13.35-.4,1c-.023.057-.049.113-.075.168l-1.4,3.471a.879.879,0,0,1-.059.234l-.071.179a.527.527,0,0,0,.524.7h1.964a2.23,2.23,0,0,0,2.094-1.364l.666-1.682.234-.58.941-2.554h4.889a3.318,3.318,0,0,0,.681.073H79.405a1.117,1.117,0,0,0,1.047-.681L83.088,26.1a1.059,1.059,0,0,0-1.048-1.414" transform="translate(-10.032 -18.529)" fill="#fff"/>
      <path id="Path_125" data-name="Path 125" d="M51.263,24.267H49.346a1.117,1.117,0,0,0-1.037.7l-2.554,6.62A1.054,1.054,0,0,0,46.8,33h1.94a1.117,1.117,0,0,0,1.046-.68L52.3,25.8a1.117,1.117,0,0,0-1.036-1.531" transform="translate(-8.329 -18.429)" fill="#fff"/>
      <path id="Path_126" data-name="Path 126" d="M39.747,32.891h1.94a1.117,1.117,0,0,0,1.046-.68l2.512-6.517a1.116,1.116,0,0,0-1.036-1.531H42.291a1.116,1.116,0,0,0-1.037.7L38.7,31.483a1.055,1.055,0,0,0,1.046,1.408" transform="translate(-6.652 -18.404)" fill="#fff"/>
      <path id="Path_127" data-name="Path 127" d="M37.038,24.162H35.121a1.117,1.117,0,0,0-1.037.7l-2.554,6.62a1.054,1.054,0,0,0,1.046,1.407h1.94a1.117,1.117,0,0,0,1.046-.68l2.512-6.517a1.117,1.117,0,0,0-1.036-1.531" transform="translate(-4.947 -18.404)" fill="#fff"/>
      <path id="Path_128" data-name="Path 128" d="M24,24.161H22.064a1.121,1.121,0,0,0-1.049.683l-1.23,3.106-.229.58-.434,1.1a1.584,1.584,0,0,0,1.571,2.114h.347a.29.29,0,1,1,0,.578H19.544A2.11,2.11,0,0,1,17.452,29.5l1.557-3.926a1.058,1.058,0,0,0-1.048-1.412H16.027a1.12,1.12,0,0,0-1.049.684l-1.23,3.105-.229.581-.436,1.1a1.584,1.584,0,0,0,1.57,2.114H15a.289.289,0,1,1,0,.577H13.461A2.112,2.112,0,0,1,11.368,29.5l.385-.97.234-.581.942-2.377a1.058,1.058,0,0,0-1.049-1.412H9.945a1.12,1.12,0,0,0-1.049.683L7.265,28.965a2.733,2.733,0,0,0,.043,2.115,2.945,2.945,0,0,0-.76,1.088L5.781,34.1a.825.825,0,0,1-.775.505.78.78,0,0,1-.774-1.044l2.394-6.028c.428-1.063.749-1.063-.858-1.063L3.9,26.45a1.673,1.673,0,0,0-1.57,1.022l-2.221,5.6a1.584,1.584,0,0,0,1.57,2.115H6.953A3.911,3.911,0,0,0,10.573,32.9H21.365a1.116,1.116,0,0,0,1.046-.681l2.636-6.639A1.058,1.058,0,0,0,24,24.161" transform="translate(2.532 -18.404)" fill="#fff"/>
      <path id="Path_129" data-name="Path 129" d="M44,22.292h1.916a1.117,1.117,0,0,0,1.037-.7l.131-.325a1.056,1.056,0,0,0-1.047-1.409H44.1a1.117,1.117,0,0,0-1.047.68l-.088.224A1.117,1.117,0,0,0,44,22.292" transform="translate(-7.663 -17.381)" fill="#fff"/>
      <path id="Path_130" data-name="Path 130" d="M37.822,22.292h1.916a1.117,1.117,0,0,0,1.037-.7l.13-.325a1.056,1.056,0,0,0-1.046-1.409H37.92a1.116,1.116,0,0,0-1.047.68l-.088.224a1.117,1.117,0,0,0,1.037,1.531" transform="translate(-6.194 -17.381)" fill="#fff"/>
      <path id="Path_131" data-name="Path 131" d="M15.52,22.14h1.916a1.117,1.117,0,0,0,1.037-.7l.13-.325A1.056,1.056,0,0,0,17.557,19.7H15.618a1.116,1.116,0,0,0-1.047.68l-.088.224A1.117,1.117,0,0,0,15.52,22.14" transform="translate(-0.892 -17.345)" fill="#fff"/>
      <path id="Path_132" data-name="Path 132" d="M22.038,22.14h1.916a1.117,1.117,0,0,0,1.037-.7l.13-.325A1.056,1.056,0,0,0,24.075,19.7H22.136a1.116,1.116,0,0,0-1.047.68L21,20.609a1.117,1.117,0,0,0,1.037,1.531" transform="translate(-2.441 -17.345)" fill="#fff"/>
      <path id="Path_133" data-name="Path 133" d="M28.466,22.14h1.916a1.117,1.117,0,0,0,1.037-.7l.13-.325A1.056,1.056,0,0,0,30.5,19.7H28.564a1.116,1.116,0,0,0-1.047.68l-.088.224a1.117,1.117,0,0,0,1.037,1.531" transform="translate(-3.97 -17.345)" fill="#fff"/>
      <path id="Path_134" data-name="Path 134" d="M46.742,37.1H44.8a1.116,1.116,0,0,0-1.047.68l-.088.225A1.116,1.116,0,0,0,44.7,39.537h1.916a1.117,1.117,0,0,0,1.037-.7l.13-.325A1.056,1.056,0,0,0,46.742,37.1" transform="translate(-7.83 -21.48)" fill="#fff"/>
      <path id="Path_135" data-name="Path 135" d="M40.835,37.1H38.9a1.116,1.116,0,0,0-1.047.68l-.088.225A1.116,1.116,0,0,0,38.8,39.537h1.916a1.117,1.117,0,0,0,1.037-.7l.13-.325A1.056,1.056,0,0,0,40.835,37.1" transform="translate(-6.426 -21.48)" fill="#fff"/>
    </g>
  </g>
</svg>
