<svg xmlns="http://www.w3.org/2000/svg" width="53" height="20" viewBox="0 0 53 20">
  <g id="Group_205" data-name="Group 205" transform="translate(-96.25 -184.051)">
    <path id="Path_1356" data-name="Path 1356" d="M172.639,218.75a6.39,6.39,0,0,0-6.389,6.389.913.913,0,0,0,1.826,0,4.563,4.563,0,0,1,4.564-4.564.913.913,0,1,0,0-1.825Z" transform="translate(-62.698 -31.097)" fill="#d0e2e5"/>
    <path id="Path_1357" data-name="Path 1357" d="M464.663,218.75a.913.913,0,1,0,0,1.825,4.563,4.563,0,0,1,4.564,4.564.913.913,0,0,0,1.826,0,6.39,6.39,0,0,0-6.389-6.389Z" transform="translate(-329.104 -31.097)" fill="#d0e2e5"/>
    <path id="Path_1358" data-name="Path 1358" d="M148.336,193.119h-2.787a10.057,10.057,0,0,0-19.875-.964,5.456,5.456,0,0,0-5.848,0,10.057,10.057,0,0,0-19.875.964H97.164a.91.91,0,1,0,0,1.82h2.787a10.061,10.061,0,0,0,19.19,3.185,9.739,9.739,0,0,0,.868-3.722,3.611,3.611,0,0,1,5.483,0,9.726,9.726,0,0,0,.914,3.722,10.058,10.058,0,0,0,19.19-3.185h2.741a.91.91,0,1,0,0-1.82Zm-30.877,4.258a8.165,8.165,0,1,1,.722-3.348,7.973,7.973,0,0,1-.722,3.348Zm18.084,4.841a8.226,8.226,0,0,1-7.5-4.85,7.957,7.957,0,0,1-.722-3.339,8.231,8.231,0,1,1,8.224,8.189Z" transform="translate(0)" fill="#d0e2e5"/>
  </g>
</svg>
