<svg xmlns="http://www.w3.org/2000/svg" xmlns:xlink="http://www.w3.org/1999/xlink" width="99" height="98" viewBox="0 0 99 98">
  <defs>
    <filter id="Rectangle_51" x="0" y="0" width="99" height="98" filterUnits="userSpaceOnUse">
      <feOffset dy="3" input="SourceAlpha"/>
      <feGaussianBlur stdDeviation="2.5" result="blur"/>
      <feFlood flood-opacity="0.161"/>
      <feComposite operator="in" in2="blur"/>
      <feComposite in="SourceGraphic"/>
    </filter>
  </defs>
  <g id="Group_2040" data-name="Group 2040" transform="translate(-165.5 -180.5)">
    <g transform="matrix(1, 0, 0, 1, 165.5, 180.5)" filter="url(#Rectangle_51)">
      <rect id="Rectangle_51-2" data-name="Rectangle 51" width="84" height="83" rx="10" transform="translate(7.5 4.5)" fill="#fff"/>
    </g>
    <path id="Path_7343" data-name="Path 7343" d="M40.469,14.735a4.191,4.191,0,0,0,.82-2.493.727.727,0,0,0-.016-.161l0-.016-.8-4.005a.8.8,0,0,0-.788-.647H7.511a.81.81,0,0,0-.772.575L5.536,12l0,.008a.752.752,0,0,0-.032.229A4.208,4.208,0,0,0,6.706,15.19V38.143a.8.8,0,1,0,1.609,0V16.219a4.217,4.217,0,0,0,4.826-1.508,4.214,4.214,0,0,0,6.836,0,4.214,4.214,0,0,0,6.836,0,4.214,4.214,0,0,0,6.836,0,4.211,4.211,0,0,0,3.418,1.749,4.135,4.135,0,0,0,1.81-.41V38.143a.8.8,0,0,0,1.609,0V14.9a.7.7,0,0,0-.016-.161Zm-3.4.117a2.619,2.619,0,0,1-2.614-2.614.8.8,0,1,0-1.608,0,2.614,2.614,0,0,1-5.228,0,.8.8,0,1,0-1.608,0,2.614,2.614,0,0,1-5.228,0,.8.8,0,1,0-1.609,0,2.614,2.614,0,0,1-5.228,0,.8.8,0,1,0-1.609,0,2.613,2.613,0,0,1-5.224.1l1-3.322H39.021l.655,3.281A2.613,2.613,0,0,1,37.067,14.852Zm1.81-8.244H8.315A.8.8,0,0,1,8.315,5H38.876a.8.8,0,1,1,0,1.609Zm1.609,34.583H6.3a.8.8,0,0,1,0-1.609H40.485a.8.8,0,0,1,0,1.609ZM18.77,38.058H10.728a.8.8,0,0,1-.8-.8V20.364a.8.8,0,0,1,.8-.8H18.77a.8.8,0,0,1,.8.8V37.254A.8.8,0,0,1,18.77,38.058Zm-7.238-1.608h6.434V21.169H11.532Zm24.932,1.608H21.987a.8.8,0,0,1-.8-.8V20.364a.8.8,0,0,1,.8-.8H36.464a.8.8,0,0,1,.8.8V37.254A.8.8,0,0,1,36.464,38.058ZM22.791,36.449H35.659V21.169H22.791ZM16.86,29.613a.8.8,0,1,1-.8-.8A.8.8,0,0,1,16.86,29.613Zm9.968.99a.8.8,0,0,1-.569-1.373l1.979-1.979a.8.8,0,0,1,1.137,1.137L27.4,30.367A.8.8,0,0,1,26.828,30.6Zm2.815,0a.8.8,0,0,1-.569-1.373l1.979-1.979a.8.8,0,1,1,1.137,1.137l-1.979,1.979A.8.8,0,0,1,29.643,30.6Z" transform="translate(191.605 203.404)" fill="#1d0d63" stroke="#f5f9f7" stroke-width="1"/>
  </g>
</svg>
