<svg id="Group_2068" data-name="Group 2068" xmlns="http://www.w3.org/2000/svg" xmlns:xlink="http://www.w3.org/1999/xlink" width="37.909" height="32.449" viewBox="0 0 37.909 32.449">
  <defs>
    <clipPath id="clip-path">
      <rect id="Rectangle_927" data-name="Rectangle 927" width="37.909" height="32.449" fill="#1d0d63"/>
    </clipPath>
  </defs>
  <g id="Group_2067" data-name="Group 2067" clip-path="url(#clip-path)">
    <path id="Path_7387" data-name="Path 7387" d="M0,8.976A4.007,4.007,0,0,1,1.3,6.961c1.132-1.1,2.237-2.228,3.354-3.345a1.849,1.849,0,0,1,.243-.227.512.512,0,0,1,.706.053.513.513,0,0,1,.065.706,1.893,1.893,0,0,1-.251.27L1.749,8.083a1.653,1.653,0,0,0-.179,2.466c.239.326.483.648.708.949L11.5,2.28c-.45-.318-.9-.685-1.4-.974a1.538,1.538,0,0,0-1.844.276c-.341.322-.662.663-1,.991-.311.3-.632.325-.874.066s-.205-.546.09-.847c.346-.352.69-.706,1.05-1.043A2.64,2.64,0,0,1,10.864.468c1.254.873,2.472,1.8,3.7,2.711a.532.532,0,0,1,.074.864c-.261.278-.553.527-.862.817.117.125.2.213.278.3,1.1,1.1,2.192,2.2,3.3,3.289a.935.935,0,0,0,.571.232c.7.027,1.406.015,2.109.006a.586.586,0,0,0,.371-.1c1.23-1.209,2.45-2.43,3.74-3.716-.282-.258-.552-.488-.8-.737-.383-.382-.36-.695.068-1.013,1.148-.852,2.295-1.708,3.453-2.547a2.682,2.682,0,0,1,3.6.27q3.309,3.285,6.594,6.594a2.676,2.676,0,0,1,.292,3.574c-.84,1.173-1.706,2.327-2.567,3.484-.32.43-.633.451-1.014.071-.244-.243-.469-.5-.712-.765l-.691.749a2.6,2.6,0,0,1,.4.287,6.179,6.179,0,0,1,.839,7.537c-.026.042-.05.085-.079.125a.564.564,0,0,1-.773.195.576.576,0,0,1-.171-.78,9.554,9.554,0,0,0,.738-1.952A4.941,4.941,0,0,0,31.6,15.245l-.776.8a4.036,4.036,0,0,1,1.377,2.241,3.942,3.942,0,0,1-1.989,4.351.544.544,0,0,0-.333.47,8.041,8.041,0,0,1-.251.993c.444-.2.831-.362,1.213-.538.122-.056.229-.145.348-.209a.549.549,0,0,1,.777.17.543.543,0,0,1-.2.77,5.736,5.736,0,0,1-2.456.962,2.4,2.4,0,0,0-1.03.416,6.869,6.869,0,0,1-1.5.688c-.245.086-.331.163-.329.42.012,1.307.015,2.615,0,3.922a1.64,1.64,0,0,1-1.735,1.742,1.615,1.615,0,0,1-1.373-.87.635.635,0,0,0-.994-.01,1.641,1.641,0,0,1-2.918,0,.638.638,0,0,0-1,.007,1.64,1.64,0,0,1-2.917-.016.645.645,0,0,0-.974-.008,1.653,1.653,0,0,1-3.123-.817c-.012-.555.011-1.111-.014-1.665a.478.478,0,0,0-.228-.345A4.809,4.809,0,0,1,8.421,25.45a.509.509,0,0,0-.316-.276,6.068,6.068,0,0,1-4.645-5.1A5.917,5.917,0,0,1,5.2,14.763c.094-.1.2-.182.31-.282l-.682-.613c-.189.189-.428.43-.67.668-.421.414-.723.4-1.066-.062-.845-1.139-1.7-2.27-2.516-3.429A7.831,7.831,0,0,1,0,9.864V8.976m27.624,9.8c.117-.361.2-.67.318-.963a.414.414,0,0,0-.127-.516q-3.656-3.642-7.307-7.289a.769.769,0,0,0-.476-.2c-.7-.021-1.406,0-2.108-.014a.729.729,0,0,0-.58.243c-2.227,2.237-4.436,4.494-6.71,6.683a1.383,1.383,0,0,0-.439,1.851,10.749,10.749,0,0,1,.494,1.479c.147-.139.246-.229.342-.323q2.83-2.767,5.661-5.534a3.118,3.118,0,0,1,4.177-.306c.792.567,1.578,1.141,2.367,1.712l4.389,3.177m7.98-7.247c.28-.38.554-.742.819-1.111a1.613,1.613,0,0,0-.177-2.238c-.606-.614-1.219-1.222-1.829-1.832Q32.089,4.02,29.762,1.692a1.528,1.528,0,0,0-1.845-.429A13.07,13.07,0,0,0,26.374,2.29L35.6,11.528M12.984,19.614a4.546,4.546,0,0,1,3.442,1.451,4.8,4.8,0,0,1,1.336,3.689c.153-.142.251-.229.345-.32q2.4-2.358,4.8-4.719A4.283,4.283,0,0,1,25.022,18.5a1.7,1.7,0,0,0,.2-.079l-3.09-2.225c-.436,2.236-1.387,3.252-3.061,3.309s-2.788-.912-3.3-2.875l-2.795,2.99m.042,1.117a3.617,3.617,0,1,0,3.624,3.613,3.618,3.618,0,0,0-3.624-3.613M8.881,9.9c.064.068.145.158.23.244.443.447.9.879,1.326,1.342a1.619,1.619,0,0,1-1.646,2.648,2.45,2.45,0,0,1-.826-.53c-.5-.454-.954-.948-1.394-1.392l-.793.761,3.47,3.471,7.2-7.2L13.007,5.8l-.84.75c.519.514,1.02,1.005,1.517,1.5a1.585,1.585,0,0,1,.5,1.409,1.557,1.557,0,0,1-1.059,1.311,1.529,1.529,0,0,1-1.677-.353c-.531-.511-1.031-1.052-1.556-1.592L8.881,9.9M21.42,9.209l7.248,7.248,3.448-3.432-.759-.837-1.472,1.483a1.618,1.618,0,0,1-1.4.529,1.63,1.63,0,0,1-.972-2.769c.5-.522,1.027-1.023,1.532-1.523L28.012,8.885c-.083.08-.181.17-.276.264-.438.434-.858.888-1.316,1.3a1.614,1.614,0,0,1-2.684-.882,1.582,1.582,0,0,1,.483-1.515c.5-.5,1.008-1,1.459-1.45l-.81-.841L21.42,9.209m4.474,16.142a2.926,2.926,0,1,0-2.908-2.919,2.928,2.928,0,0,0,2.908,2.919M12.518,3.045,3.026,12.523l.62.831,9.7-9.7-.829-.613m12.03.617,9.7,9.7.661-.9-9.427-9.5-.935.689m-5.6,14.732a2.025,2.025,0,1,0-2.027-2.01,2.01,2.01,0,0,0,2.027,2.01M6.265,15.268a5.111,5.111,0,0,0,2.007,8.8L8.47,23a4.022,4.022,0,0,1-1.412-6.955l-.793-.776m1.614,1.567a2.854,2.854,0,0,0,.866,5.035.389.389,0,0,0,.317-.116,5.071,5.071,0,0,0,.551-.69.564.564,0,0,0,.086-.409c-.218-.743-.5-1.468-.688-2.218a2.921,2.921,0,0,0-1.132-1.6m22.077-.021a6.828,6.828,0,0,0-.847,1.037,6.566,6.566,0,0,0-.443,1.327.4.4,0,0,0,.037.327,4.369,4.369,0,0,1,1.151,2.023,2.82,2.82,0,0,0,.1-4.715m-11,8.513H23.1a4.254,4.254,0,0,1-1.252-2.951l-.1-.018-2.8,2.969m1.4,1.153c0,.78,0,1.52,0,2.259,0,.678-.007,1.357.005,2.035a.533.533,0,0,0,.526.556.546.546,0,0,0,.559-.527,1.515,1.515,0,0,0,.005-.185q0-1.924,0-3.849a2.667,2.667,0,0,0-.032-.29Zm3.915,0c0,.5,0,.952,0,1.407,0,.961,0,1.922,0,2.883a.537.537,0,1,0,1.073.037,1.8,1.8,0,0,0,.008-.221q0-1.885,0-3.77c0-.107-.016-.214-.025-.336Zm-6.735.172-.126-.088c-.287.318-.578.634-.86.957a.385.385,0,0,0-.1.224c-.006,1.021-.013,2.042,0,3.062a.52.52,0,0,0,.554.524.53.53,0,0,0,.525-.554c.009-1.375,0-2.749,0-4.124M27.215,8.11l-.73-.753c-.5.5-1.017,1-1.52,1.524a.486.486,0,0,0,0,.727.5.5,0,0,0,.754-.019c.514-.494,1.015-1,1.5-1.479M11.4,7.355l-.734.738c.5.5,1,1.006,1.516,1.5a.5.5,0,0,0,.753.011.488.488,0,0,0-.01-.727c-.5-.518-1.024-1.023-1.526-1.522M29.843,10.67c-.519.519-1.037,1.025-1.541,1.545a.478.478,0,0,0,0,.725.458.458,0,0,0,.693.033c.536-.519,1.049-1.062,1.566-1.589l-.714-.714M7.309,11.4c.523.52,1.032,1.036,1.551,1.54a.481.481,0,0,0,.725.017.47.47,0,0,0,.024-.722c-.511-.529-1.042-1.04-1.566-1.559l-.734.724m5.258,17.67c0,.629-.022,1.24.01,1.848a.456.456,0,0,0,.524.413.47.47,0,0,0,.506-.441c.03-.609.009-1.22.009-1.82Zm6.1,1.145h.555V26.48h-.555Zm3.908-.006h.565V26.491h-.565Zm-7.284-1.75c-.211.157-.508.266-.532.416a8.817,8.817,0,0,0-.024,1.329h.6c0-.531,0-1.031,0-1.532a1.647,1.647,0,0,0-.041-.214" transform="translate(0 0)" fill="#1d0d63"/>
    <path id="Path_7388" data-name="Path 7388" d="M116.433,232.587a1.67,1.67,0,1,1,1.687-1.648,1.675,1.675,0,0,1-1.687,1.648m.024-1.112a.554.554,0,0,0,.549-.569.563.563,0,0,0-1.125.027.557.557,0,0,0,.577.542" transform="translate(-103.417 -206.577)" fill="#1d0d63"/>
    <path id="Path_7389" data-name="Path 7389" d="M246.743,213.207a1.671,1.671,0,0,1-1.664-1.669,1.676,1.676,0,1,1,1.664,1.669m.025-1.113a.56.56,0,0,0,.551-.569.584.584,0,0,0-.579-.55.575.575,0,0,0-.547.578.549.549,0,0,0,.574.541" transform="translate(-220.843 -189.11)" fill="#1d0d63"/>
  </g>
</svg>
