<svg xmlns="http://www.w3.org/2000/svg" width="15.823" height="13.128" viewBox="0 0 15.823 13.128">
  <g id="Icon_feather-camera" data-name="Icon feather-camera" transform="translate(-1 -4)">
    <path id="Path_7456" data-name="Path 7456" d="M16.323,15.281a1.348,1.348,0,0,1-1.348,1.348H2.848A1.348,1.348,0,0,1,1.5,15.281V7.869A1.348,1.348,0,0,1,2.848,6.521h2.7L6.89,4.5h4.043l1.348,2.021h2.7a1.348,1.348,0,0,1,1.348,1.348Z" fill="none" stroke="#1d0d63" stroke-linecap="round" stroke-linejoin="round" stroke-width="1"/>
    <path id="Path_7457" data-name="Path 7457" d="M17.39,16.2a2.7,2.7,0,1,1-2.7-2.7,2.7,2.7,0,0,1,2.7,2.7Z" transform="translate(-5.784 -4.957)" fill="none" stroke="#1d0d63" stroke-linecap="round" stroke-linejoin="round" stroke-width="1"/>
  </g>
</svg>
