<svg xmlns="http://www.w3.org/2000/svg" width="42" height="42" viewBox="0 0 42 42">
  <g id="Group_2041" data-name="Group 2041" transform="translate(-361 -588)">
    <g id="Group_2033" data-name="Group 2033" transform="translate(361.449 588.019)">
      <rect id="Rectangle_65" data-name="Rectangle 65" width="42" height="42" rx="20" transform="translate(-0.449 -0.019)" fill="#009fbd"/>
    </g>
    <path id="Icon_material-language" data-name="Icon material-language" d="M14.744,3A11.756,11.756,0,1,0,26.512,14.756,11.75,11.75,0,0,0,14.744,3Zm8.147,7.054H19.423A18.4,18.4,0,0,0,17.8,5.868,9.44,9.44,0,0,1,22.891,10.054ZM14.756,5.4A16.56,16.56,0,0,1,17,10.054H12.51A16.56,16.56,0,0,1,14.756,5.4Zm-9.1,11.709a9.2,9.2,0,0,1,0-4.7H9.63a19.415,19.415,0,0,0-.165,2.351,19.415,19.415,0,0,0,.165,2.351Zm.964,2.351h3.468a18.4,18.4,0,0,0,1.622,4.185A9.389,9.389,0,0,1,6.621,19.458Zm3.468-9.4H6.621a9.389,9.389,0,0,1,5.09-4.185A18.4,18.4,0,0,0,10.089,10.054Zm4.667,14.06a16.56,16.56,0,0,1-2.245-4.655H17A16.56,16.56,0,0,1,14.756,24.114Zm2.751-7.006H12a17.3,17.3,0,0,1-.188-2.351A17.146,17.146,0,0,1,12,12.4h5.5a17.146,17.146,0,0,1,.188,2.351A17.3,17.3,0,0,1,17.507,17.107Zm.294,6.536a18.4,18.4,0,0,0,1.622-4.185h3.468a9.44,9.44,0,0,1-5.09,4.185Zm2.081-6.536a19.415,19.415,0,0,0,.165-2.351,19.415,19.415,0,0,0-.165-2.351h3.973a9.2,9.2,0,0,1,0,4.7Z" transform="translate(367.488 594.959)" fill="#f5f9f7" stroke="#009fbd" stroke-width="1"/>
  </g>
</svg>
