<svg xmlns="http://www.w3.org/2000/svg" width="18.994" height="21" viewBox="0 0 18.994 21">
  <g id="Group_472" data-name="Group 472" transform="translate(-25.615 -50)">
    <g id="Group_148" data-name="Group 148" transform="translate(-98.557 -179.309)">
      <path id="Path_652" data-name="Path 652" d="M133.382,250.309a5.855,5.855,0,0,1-.89-.336,2.279,2.279,0,0,1-1.1-2.448c.006-.033.01-.066.019-.125h-.247c-1.6,0-3.2,0-4.794,0a2.173,2.173,0,0,1-.168-4.342c.523-.026.689-.2.69-.724,0-1.263-.014-2.527.006-3.79a6.753,6.753,0,0,1,4.556-6.283c.057-.02.112-.044.174-.068a2.122,2.122,0,0,1,.968-2.568,2.008,2.008,0,0,1,2.328.119,2.151,2.151,0,0,1,.772,2.439c.046.02.093.042.142.061a6.723,6.723,0,0,1,4.53,5.464,6.649,6.649,0,0,1,.066,1.082c.008,1.188,0,2.376,0,3.564,0,.5.179.682.669.7a2.171,2.171,0,0,1,.259,4.306,3.076,3.076,0,0,1-.488.037q-2.356,0-4.712,0h-.2c0,.281.022.551,0,.817a2.293,2.293,0,0,1-1.92,2.056.52.52,0,0,0-.093.035Zm.282-4.141q3.647,0,7.293,0a.94.94,0,0,0,.97-.928.917.917,0,0,0-.906-.945,1.826,1.826,0,0,1-1.82-1.928c.022-1.2.011-2.4,0-3.606a7.026,7.026,0,0,0-.084-1.059,5.535,5.535,0,0,0-10.986,1.008c0,1.222,0,2.445,0,3.667a2.427,2.427,0,0,1-.055.548,1.767,1.767,0,0,1-1.686,1.361.943.943,0,1,0,.024,1.883Q130.037,246.17,133.664,246.168Zm0,1.232c-.252,0-.5.007-.757,0a.213.213,0,0,0-.23.151,1.088,1.088,0,0,0,.322,1.29,1.076,1.076,0,0,0,1.327.008,1.089,1.089,0,0,0,.337-1.286.221.221,0,0,0-.242-.164C134.17,247.409,133.917,247.4,133.665,247.4Zm0-15.513c.218.01.435.031.653.025a.255.255,0,0,0,.192-.115.886.886,0,0,0-.3-1.056.9.9,0,0,0-1.1.018.885.885,0,0,0-.275,1.046.238.238,0,0,0,.177.109C133.227,231.918,133.445,231.9,133.663,231.888Z" transform="translate(0)" fill="#fff"/>
    </g>
  </g>
</svg>
