<svg xmlns="http://www.w3.org/2000/svg" xmlns:xlink="http://www.w3.org/1999/xlink" width="21.061" height="20" viewBox="0 0 21.061 20">
  <defs>
    <clipPath id="clip-path">
      <rect id="Rectangle_924" data-name="Rectangle 924" width="21.061" height="20" transform="translate(-4)" fill="#f5f9f7" stroke="#fff" stroke-width="0.5"/>
    </clipPath>
  </defs>
  <g id="Group_2062" data-name="Group 2062" transform="translate(4)">
    <g id="Mask_Group_2061" data-name="Mask Group 2061" clip-path="url(#clip-path)">
      <g id="Path_7372" data-name="Path 7372" transform="translate(0 -25.024)" fill="#f5f9f7">
        <path d="M 13.00835990905762 44.77365875244141 L 0.05299970135092735 44.77365875244141 C -0.4266903102397919 44.77365875244141 -0.8802502751350403 44.58625030517578 -1.224120259284973 44.24594116210938 C -1.562920331954956 43.90729141235352 -1.750000238418579 43.45407867431641 -1.750000238418579 42.97066879272461 L -1.750000238418579 28.30100059509277 C -1.750000238418579 27.8213005065918 -1.562580347061157 27.36774063110352 -1.222280263900757 27.02388000488281 C -0.8802502751350403 26.68540954589844 -0.4266903102397919 26.49799919128418 0.05299970135092735 26.49799919128418 L 3.296969652175903 26.49799919128418 L 3.296969652175903 26.81432914733887 L 0.05299970135092735 26.81432914733887 C -0.337110310792923 26.81432914733887 -0.719890296459198 26.97347068786621 -0.9972103238105774 27.25093078613281 C -1.278680324554443 27.53240966796875 -1.433720350265503 27.90535926818848 -1.433720350265503 28.30104064941406 L -1.433720350265503 42.97071075439453 C -1.433720350265503 43.36906814575195 -1.278680324554443 43.74348831176758 -0.9971603155136108 44.02502059936523 C -0.7170602679252625 44.30033874511719 -0.3348503112792969 44.45737838745117 0.05299970135092735 44.45737838745117 L 13.00835990905762 44.45737838745117 C 13.39610004425049 44.45737838745117 13.77829933166504 44.30035018920898 14.05694961547852 44.02656936645508 C 14.34003925323486 43.74348068237305 14.49507999420166 43.36906051635742 14.49507999420166 42.97071075439453 L 14.49507999420166 28.30104064941406 C 14.49507999420166 27.90542984008789 14.34004974365234 27.53248977661133 14.05853939056396 27.25090980529785 C 13.7813196182251 26.97347068786621 13.39853000640869 26.81432914733887 13.00835990905762 26.81432914733887 L 9.783869743347168 26.81432914733887 L 9.625699996948242 26.81432914733887 L 9.625699996948242 26.49799919128418 L 13.00835990905762 26.49799919128418 C 13.48805999755859 26.49799919128418 13.94161987304688 26.68540954589844 14.2854700088501 27.02570915222168 C 14.62395000457764 27.36771011352539 14.81135940551758 27.82126045227051 14.81135940551758 28.30100059509277 L 14.81135940551758 42.97066879272461 C 14.81135940551758 43.4540901184082 14.62428951263428 43.90729904174805 14.28459930419922 44.24681854248047 C 13.94164943695068 44.58625030517578 13.48810005187988 44.77365875244141 13.00835990905762 44.77365875244141 Z" stroke="none"/>
        <path d="M 0.05299949645996094 26.24800491333008 L 3.546969413757324 26.24800491333008 L 3.546969413757324 27.06433486938477 L 0.05299949645996094 27.06433486938477 C -0.2735300064086914 27.06433486938477 -0.5878400802612305 27.19498443603516 -0.8203802108764648 27.42766189575195 C -1.053060531616211 27.66034317016602 -1.183720588684082 27.97451400756836 -1.183720588684082 28.30104446411133 L -1.183720588684082 42.970703125 C -1.183720588684082 43.30125427246094 -1.053060531616211 43.61556243896484 -0.8203802108764648 43.84824371337891 C -0.587890625 44.07676315307617 -0.2735300064086914 44.20737457275391 0.05299949645996094 44.20737457275391 L 13.00835990905762 44.20737457275391 C 13.33488941192627 44.20737457275391 13.64919948577881 44.07671356201172 13.88173961639404 43.84824371337891 C 14.11440944671631 43.61556243896484 14.24507999420166 43.30120468139648 14.24507999420166 42.970703125 L 14.24507999420166 28.30104446411133 C 14.24507999420166 27.97451400756836 14.11440944671631 27.66038513183594 13.88173961639404 27.42766189575195 C 13.64925003051758 27.19498443603516 13.33488941192627 27.06433486938477 13.00835990905762 27.06433486938477 L 9.375699996948242 27.06433486938477 L 9.375699996948242 26.24800491333008 L 13.00835990905762 26.24800491333008 C 13.5511999130249 26.24800491333008 14.07359981536865 26.46430206298828 14.46132946014404 26.8480224609375 C 14.84509944915771 27.23575210571289 15.06135940551758 27.75821304321289 15.06135940551758 28.30099487304688 L 15.06135940551758 42.97066497802734 C 15.06135940551758 43.51769256591797 14.84504985809326 44.04010391235352 14.46132946014404 44.42363357543945 C 14.07359981536865 44.80740356445312 13.55114936828613 45.02366638183594 13.00835990905762 45.02366638183594 L 0.05299949645996094 45.02366638183594 C -0.4898405075073242 45.02366638183594 -1.012240409851074 44.80735397338867 -1.399970054626465 44.42363357543945 C -1.783740043640137 44.04005432128906 -2 43.51765441894531 -2 42.97066497802734 L -2 28.30099487304688 C -2 27.75816345214844 -1.783699989318848 27.23575210571289 -1.399970054626465 26.8480224609375 C -1.012200355529785 26.46425247192383 -0.4897899627685547 26.24800491333008 0.05299949645996094 26.24800491333008 Z" stroke="none" fill="#fff"/>
      </g>
      <g id="Path_7373" data-name="Path 7373" transform="translate(-62.561)" fill="#f5f9f7" fill-rule="evenodd">
        <path d="M 71.70756530761719 3.174575090408325 L 66.47512817382812 3.174575090408325 C 66.31290435791016 3.174575090408325 66.16110229492188 3.112115144729614 66.04769134521484 2.998695135116577 C 65.93521118164062 2.883215188980103 65.87200164794922 2.730655193328857 65.87200164794922 2.571435213088989 L 65.87200164794922 0.8531351685523987 C 65.87200164794922 0.6909051537513733 65.93439483642578 0.5391651391983032 66.04769134521484 0.4258751571178436 C 66.16110229492188 0.3124551475048065 66.31290435791016 0.249995157122612 66.47512817382812 0.249995157122612 L 71.70756530761719 0.249995157122612 C 71.86979675292969 0.249995157122612 72.0216064453125 0.3124551475048065 72.13501739501953 0.4258751571178436 C 72.24831390380859 0.5391651391983032 72.31070709228516 0.6909051537513733 72.31070709228516 0.8531351685523987 L 72.31070709228516 2.571435213088989 C 72.31070709228516 2.730655193328857 72.24749755859375 2.883215188980103 72.13273620605469 3.001015186309814 C 72.0216064453125 3.112115144729614 71.86979675292969 3.174575090408325 71.70756530761719 3.174575090408325 Z M 66.47512817382812 0.5663251876831055 C 66.31698608398438 0.5663251876831055 66.18832397460938 0.6949851512908936 66.18832397460938 0.8531351685523987 L 66.18832397460938 2.571435213088989 C 66.18832397460938 2.72958517074585 66.31698608398438 2.858245134353638 66.47512817382812 2.858245134353638 L 71.70756530761719 2.858245134353638 C 71.79591369628906 2.858245134353638 71.87679290771484 2.818328619003296 71.92826080322266 2.751605033874512 C 71.97108459472656 2.699991703033447 71.99437713623047 2.636997222900391 71.99437713623047 2.571435213088989 L 71.99437713623047 0.8531351685523987 C 71.99437713623047 0.774675190448761 71.96482086181641 0.7036551833152771 71.908935546875 0.6477551460266113 C 71.85333251953125 0.5941051840782166 71.78298187255859 0.5663251876831055 71.70756530761719 0.5663251876831055 L 66.47512817382812 0.5663251876831055 Z" stroke="none"/>
        <path d="M 66.47512817382812 -4.76837158203125e-06 L 71.70756530761719 -4.76837158203125e-06 C 71.93624114990234 -4.76837158203125e-06 72.15254211425781 0.08984518051147461 72.31179809570312 0.2490952014923096 C 72.47086334228516 0.4081652164459229 72.56070709228516 0.6244652271270752 72.56070709228516 0.8531351089477539 L 72.56070709228516 2.571435213088989 C 72.56070709228516 2.795905113220215 72.47086334228516 3.012205123901367 72.31179809570312 3.175475120544434 C 72.15254211425781 3.334725141525269 71.93624114990234 3.424575090408325 71.70756530761719 3.424575090408325 L 66.47512817382812 3.424575090408325 C 66.24646759033203 3.424575090408325 66.03016662597656 3.334725141525269 65.87091064453125 3.175475120544434 C 65.71184539794922 3.012205123901367 65.62200164794922 2.795905113220215 65.62200164794922 2.571435213088989 L 65.62200164794922 0.8531351089477539 C 65.62200164794922 0.6244652271270752 65.71184539794922 0.4081652164459229 65.87091064453125 0.2490952014923096 C 66.03016662597656 0.08984518051147461 66.24646759033203 -4.76837158203125e-06 66.47512817382812 -4.76837158203125e-06 Z M 71.70756530761719 2.608245134353638 C 71.719970703125 2.608245134353638 71.72799682617188 2.604045152664185 71.73215484619141 2.596015214920044 C 71.74036407470703 2.587855100631714 71.74436187744141 2.579645156860352 71.74436187744141 2.571435213088989 L 71.74436187744141 0.8531351089477539 C 71.74436187744141 0.8409152030944824 71.74036407470703 0.8327450752258301 71.73215484619141 0.8245351314544678 C 71.72799682617188 0.8205251693725586 71.719970703125 0.8163251876831055 71.70756530761719 0.8163251876831055 L 66.47512817382812 0.8163251876831055 C 66.45475769042969 0.8163251876831055 66.43832397460938 0.8327450752258301 66.43832397460938 0.8531351089477539 L 66.43832397460938 2.571435213088989 C 66.43832397460938 2.591865062713623 66.45475769042969 2.608245134353638 66.47512817382812 2.608245134353638 L 71.70756530761719 2.608245134353638 Z" stroke="none" fill="#fff"/>
      </g>
      <g id="Path_7375" data-name="Path 7375" transform="translate(-48.849 -158.331)" fill="#f5f9f7">
        <path d="M 60.86605453491211 166.6443176269531 L 49.69101333618164 166.6443176269531 L 49.69101333618164 166.3280029296875 L 60.55203247070312 166.3280029296875 L 60.86605453491211 166.3280029296875 L 60.86605453491211 166.6443176269531 Z" stroke="none"/>
        <path d="M 49.44101333618164 166.0780029296875 L 61.11605453491211 166.0780029296875 L 61.11605453491211 166.8943176269531 L 49.44101333618164 166.8943176269531 L 49.44101333618164 166.0780029296875 Z" stroke="none" fill="#fff"/>
      </g>
      <g id="Path_7376" data-name="Path 7376" transform="translate(-48.849 -208.382)" fill="#f5f9f7">
        <path d="M 60.86605453491211 219.1443328857422 L 49.69101333618164 219.1443328857422 L 49.69101333618164 218.8280029296875 L 60.55203247070312 218.8280029296875 L 60.86605453491211 218.8280029296875 L 60.86605453491211 219.1443328857422 Z" stroke="none"/>
        <path d="M 49.44101333618164 218.5780029296875 L 61.11605453491211 218.5780029296875 L 61.11605453491211 219.3943328857422 L 49.44101333618164 219.3943328857422 L 49.44101333618164 218.5780029296875 Z" stroke="none" fill="#fff"/>
      </g>
      <g id="Path_7377" data-name="Path 7377" transform="translate(-48.849 -258.433)" fill="#f5f9f7">
        <path d="M 60.86605453491211 271.6443176269531 L 49.69101333618164 271.6443176269531 L 49.69101333618164 271.3280029296875 L 60.55203247070312 271.3280029296875 L 60.86605453491211 271.3280029296875 L 60.86605453491211 271.6443176269531 Z" stroke="none"/>
        <path d="M 49.44101333618164 271.0780029296875 L 61.11605453491211 271.0780029296875 L 61.11605453491211 271.8943176269531 L 49.44101333618164 271.8943176269531 L 49.44101333618164 271.0780029296875 Z" stroke="none" fill="#fff"/>
      </g>
      <g id="Path_7378" data-name="Path 7378" transform="translate(-48.849 -308.484)" fill="#f5f9f7">
        <path d="M 60.86605453491211 324.1443176269531 L 49.69101333618164 324.1443176269531 L 49.69101333618164 323.8280029296875 L 60.55203247070312 323.8280029296875 L 60.86605453491211 323.8280029296875 L 60.86605453491211 324.1443176269531 Z" stroke="none"/>
        <path d="M 49.44101333618164 323.5780029296875 L 61.11605453491211 323.5780029296875 L 61.11605453491211 324.3943176269531 L 49.44101333618164 324.3943176269531 L 49.44101333618164 323.5780029296875 Z" stroke="none" fill="#fff"/>
      </g>
    </g>
  </g>
</svg>
