<svg xmlns="http://www.w3.org/2000/svg" xmlns:xlink="http://www.w3.org/1999/xlink" width="20" height="20" viewBox="0 0 20 20">
  <defs>
    <clipPath id="clip-path">
      <rect id="Rectangle_230" data-name="Rectangle 230" width="20" height="20" fill="#be1e2d" stroke="#be1e2d" stroke-width="0.3"/>
    </clipPath>
  </defs>
  <g id="Group_2018" data-name="Group 2018" transform="translate(0 0)">
    <g id="Group_2017" data-name="Group 2017" transform="translate(0 0)" clip-path="url(#clip-path)">
      <path id="Path_654" data-name="Path 654" d="M9.89.25a9.64,9.64,0,1,0,9.64,9.64A9.653,9.653,0,0,0,9.89.25m0,18.9A9.262,9.262,0,1,1,19.152,9.89,9.277,9.277,0,0,1,9.89,19.152" transform="translate(0.111 0.11)" fill="#be1e2d" stroke="#be1e2d" stroke-width="0.3"/>
      <path id="Path_655" data-name="Path 655" d="M9.89.25a9.64,9.64,0,1,0,9.64,9.64A9.653,9.653,0,0,0,9.89.25Zm0,18.9A9.262,9.262,0,1,1,19.152,9.89,9.277,9.277,0,0,1,9.89,19.152Z" transform="translate(0.111 0.11)" fill="#be1e2d" stroke="#be1e2d" stroke-width="0.3"/>
      <path id="Path_656" data-name="Path 656" d="M9.374,1.414A7.968,7.968,0,0,0,1.415,9.373c0,1.03.189,1.639.609,1.912.629.42,1.616,0,2.856-.547A15.359,15.359,0,0,1,8.156,9.647a1.231,1.231,0,0,0,2.394,0,14.987,14.987,0,0,1,3.276,1.091,6.779,6.779,0,0,0,2.247.714.989.989,0,0,0,.609-.167c.42-.273.609-.882.609-1.912A7.9,7.9,0,0,0,9.374,1.414m0,8.8a.841.841,0,1,1,.84-.841.843.843,0,0,1-.84.841m7.14.776c-.462.315-1.365-.084-2.52-.567a14.5,14.5,0,0,0-3.381-1.113,1.226,1.226,0,0,0-.82-1.092L9.479,2.654a.105.105,0,1,0-.211,0L8.975,8.218a1.224,1.224,0,0,0-.82,1.092,15.568,15.568,0,0,0-3.381,1.113c-1.154.483-2.058.882-2.52.567-.316-.211-.463-.735-.463-1.618a7.582,7.582,0,0,1,15.164,0c0,.883-.147,1.407-.442,1.618" transform="translate(0.627 0.626)" fill="#be1e2d" stroke="#be1e2d" stroke-width="0.3"/>
      <path id="Path_657" data-name="Path 657" d="M9.374,1.414A7.968,7.968,0,0,0,1.415,9.373c0,1.03.189,1.639.609,1.912.629.42,1.616,0,2.856-.547A15.359,15.359,0,0,1,8.156,9.647a1.231,1.231,0,0,0,2.394,0,14.987,14.987,0,0,1,3.276,1.091,6.779,6.779,0,0,0,2.247.714.989.989,0,0,0,.609-.167c.42-.273.609-.882.609-1.912A7.9,7.9,0,0,0,9.374,1.414Zm0,8.8a.841.841,0,1,1,.84-.841A.843.843,0,0,1,9.374,10.214Zm7.14.776c-.462.315-1.365-.084-2.52-.567a14.5,14.5,0,0,0-3.381-1.113,1.226,1.226,0,0,0-.82-1.092L9.479,2.654a.105.105,0,1,0-.211,0L8.975,8.218a1.224,1.224,0,0,0-.82,1.092,15.568,15.568,0,0,0-3.381,1.113c-1.154.483-2.058.882-2.52.567-.316-.211-.463-.735-.463-1.618a7.582,7.582,0,0,1,15.164,0C16.956,10.256,16.809,10.78,16.514,10.99Z" transform="translate(0.627 0.626)" fill="#be1e2d" stroke="#be1e2d" stroke-width="0.3"/>
      <path id="Path_658" data-name="Path 658" d="M3.83,3.815h0a.306.306,0,0,0,0,.442.32.32,0,0,0,.231.084.439.439,0,0,0,.231-.084.306.306,0,0,0,0-.442.33.33,0,0,0-.462,0" transform="translate(1.655 1.648)" fill="#be1e2d" stroke="#be1e2d" stroke-width="0.3"/>
      <path id="Path_659" data-name="Path 659" d="M3.83,3.815h0a.306.306,0,0,0,0,.442.32.32,0,0,0,.231.084.439.439,0,0,0,.231-.084.306.306,0,0,0,0-.442A.33.33,0,0,0,3.83,3.815Z" transform="translate(1.655 1.648)" fill="#be1e2d" stroke="#be1e2d" stroke-width="0.3"/>
      <path id="Path_660" data-name="Path 660" d="M5.3,2.833a.317.317,0,0,0-.167.42.3.3,0,0,0,.293.189.263.263,0,0,0,.127-.022A.316.316,0,0,0,5.721,3a.33.33,0,0,0-.42-.167" transform="translate(2.264 1.244)" fill="#be1e2d" stroke="#be1e2d" stroke-width="0.3"/>
      <path id="Path_661" data-name="Path 661" d="M5.3,2.833a.317.317,0,0,0-.167.42.3.3,0,0,0,.293.189.263.263,0,0,0,.127-.022A.316.316,0,0,0,5.721,3,.33.33,0,0,0,5.3,2.833Z" transform="translate(2.264 1.244)" fill="#be1e2d" stroke="#be1e2d" stroke-width="0.3"/>
      <path id="Path_662" data-name="Path 662" d="M2.806,6.7a.323.323,0,0,0-.315.315v.042a.315.315,0,1,0,.629,0v-.02A.328.328,0,0,0,2.806,6.7" transform="translate(1.104 2.967)" fill="#be1e2d" stroke="#be1e2d" stroke-width="0.3"/>
      <path id="Path_663" data-name="Path 663" d="M2.806,6.7a.323.323,0,0,0-.315.315v.042a.315.315,0,1,0,.629,0v-.02A.328.328,0,0,0,2.806,6.7Z" transform="translate(1.104 2.967)" fill="#be1e2d" stroke="#be1e2d" stroke-width="0.3"/>
      <path id="Path_664" data-name="Path 664" d="M3.253,5.118A.32.32,0,1,0,3,5.706a.263.263,0,0,0,.127.022.316.316,0,0,0,.293-.189.309.309,0,0,0-.167-.42" transform="translate(1.245 2.257)" fill="#be1e2d" stroke="#be1e2d" stroke-width="0.3"/>
      <path id="Path_665" data-name="Path 665" d="M3.253,5.118A.32.32,0,1,0,3,5.706a.263.263,0,0,0,.127.022.316.316,0,0,0,.293-.189A.309.309,0,0,0,3.253,5.118Z" transform="translate(1.245 2.257)" fill="#be1e2d" stroke="#be1e2d" stroke-width="0.3"/>
      <path id="Path_666" data-name="Path 666" d="M10.633,5.538a.3.3,0,0,0,.294.189.258.258,0,0,0,.126-.022.32.32,0,1,0-.253-.587.336.336,0,0,0-.167.42" transform="translate(4.702 2.257)" fill="#be1e2d" stroke="#be1e2d" stroke-width="0.3"/>
      <path id="Path_667" data-name="Path 667" d="M10.633,5.538a.3.3,0,0,0,.294.189.258.258,0,0,0,.126-.022.32.32,0,1,0-.253-.587A.336.336,0,0,0,10.633,5.538Z" transform="translate(4.702 2.257)" fill="#be1e2d" stroke="#be1e2d" stroke-width="0.3"/>
      <path id="Path_668" data-name="Path 668" d="M10.932,7.027a.315.315,0,1,0,.315-.315.323.323,0,0,0-.315.315" transform="translate(4.844 2.973)" fill="#be1e2d" stroke="#be1e2d" stroke-width="0.3"/>
      <path id="Path_669" data-name="Path 669" d="M10.932,7.027a.315.315,0,1,0,.315-.315A.323.323,0,0,0,10.932,7.027Z" transform="translate(4.844 2.973)" fill="#be1e2d" stroke="#be1e2d" stroke-width="0.3"/>
      <path id="Path_670" data-name="Path 670" d="M9.8,3.829a.308.308,0,0,0,0,.442.344.344,0,0,0,.231.1.308.308,0,0,0,.231-.084.3.3,0,0,0,0-.44A.313.313,0,0,0,9.8,3.829" transform="translate(4.299 1.655)" fill="#be1e2d" stroke="#be1e2d" stroke-width="0.3"/>
      <path id="Path_671" data-name="Path 671" d="M9.8,3.829a.308.308,0,0,0,0,.442.344.344,0,0,0,.231.1.308.308,0,0,0,.231-.084.3.3,0,0,0,0-.44A.313.313,0,0,0,9.8,3.829Z" transform="translate(4.299 1.655)" fill="#be1e2d" stroke="#be1e2d" stroke-width="0.3"/>
      <path id="Path_672" data-name="Path 672" d="M8.768,2.833a.32.32,0,1,0-.253.587.263.263,0,0,0,.127.022.317.317,0,0,0,.126-.609" transform="translate(3.689 1.244)" fill="#be1e2d" stroke="#be1e2d" stroke-width="0.3"/>
      <path id="Path_673" data-name="Path 673" d="M8.768,2.833a.32.32,0,1,0-.253.587.263.263,0,0,0,.127.022.317.317,0,0,0,.126-.609Z" transform="translate(3.689 1.244)" fill="#be1e2d" stroke="#be1e2d" stroke-width="0.3"/>
      <rect id="Rectangle_226" data-name="Rectangle 226" width="5.292" height="0.356" transform="translate(7.354 14.011)" fill="#be1e2d" stroke="#be1e2d" stroke-width="0.3"/>
      <rect id="Rectangle_227" data-name="Rectangle 227" width="5.292" height="0.356" transform="translate(7.354 14.011)" fill="#be1e2d" stroke="#be1e2d" stroke-width="0.3"/>
      <rect id="Rectangle_228" data-name="Rectangle 228" width="2.1" height="0.356" transform="translate(8.95 15.482)" fill="#be1e2d" stroke="#be1e2d" stroke-width="0.3"/>
      <rect id="Rectangle_229" data-name="Rectangle 229" width="2.1" height="0.356" transform="translate(8.95 15.482)" fill="#be1e2d" stroke="#be1e2d" stroke-width="0.3"/>
    </g>
  </g>
</svg>
