<svg xmlns="http://www.w3.org/2000/svg" xmlns:xlink="http://www.w3.org/1999/xlink" width="42" height="42" viewBox="0 0 42 42">
  <defs>
    <clipPath id="clip-path">
      <rect id="Rectangle_133" data-name="Rectangle 133" width="15.226" height="15.438" transform="translate(0 0)" fill="#fff"/>
    </clipPath>
  </defs>
  <g id="Group_2034" data-name="Group 2034" transform="translate(0.449 0.019)">
    <rect id="Rectangle_65" data-name="Rectangle 65" width="42" height="42" rx="20" transform="translate(-0.449 -0.019)" fill="#009fbd"/>
    <g id="Group_105" data-name="Group 105" transform="translate(12.938 13.262)">
      <g id="Group_104" data-name="Group 104" transform="translate(0 0)" clip-path="url(#clip-path)">
        <path id="Path_459" data-name="Path 459" d="M15.226,7.826a7.613,7.613,0,1,1-12.88-5.5A.711.711,0,0,1,3.33,3.354a6.192,6.192,0,1,0,8.754.188c-.061-.064-.124-.127-.188-.188a.711.711,0,1,1,.984-1.026,7.554,7.554,0,0,1,2.346,5.5M7.613,8.8a.711.711,0,0,0,.711-.711V.711A.711.711,0,0,0,6.9.711v7.38a.711.711,0,0,0,.711.711" transform="translate(0 0)" fill="#fff"/>
      </g>
    </g>
  </g>
</svg>
