<svg xmlns="http://www.w3.org/2000/svg" xmlns:xlink="http://www.w3.org/1999/xlink" width="69" height="69" viewBox="0 0 69 69">
  <defs>
    <filter id="Rectangle_51" x="0" y="0" width="69" height="69" filterUnits="userSpaceOnUse">
      <feOffset dy="3" input="SourceAlpha"/>
      <feGaussianBlur stdDeviation="2.5" result="blur"/>
      <feFlood flood-opacity="0.161"/>
      <feComposite operator="in" in2="blur"/>
      <feComposite in="SourceGraphic"/>
    </filter>
    <clipPath id="clip-path">
      <rect id="Rectangle_132" data-name="Rectangle 132" width="25.412" height="27.794" transform="translate(0 0)" fill="#d0e2e5"/>
    </clipPath>
  </defs>
  <g id="Group_2039" data-name="Group 2039" transform="translate(-27.5 -142.5)">
    <g transform="matrix(1, 0, 0, 1, 27.5, 142.5)" filter="url(#Rectangle_51)">
      <rect id="Rectangle_51-2" data-name="Rectangle 51" width="54" height="54" rx="10" transform="translate(7.5 4.5)" fill="#fff"/>
    </g>
    <g id="Group_96" data-name="Group 96" transform="translate(49.294 159.309)">
      <g id="Group_95" data-name="Group 95" transform="translate(0 0)" clip-path="url(#clip-path)">
        <path id="Path_458" data-name="Path 458" d="M16.524,13.82a7.4,7.4,0,0,0,3.74-6.4,7.559,7.559,0,0,0-15.115,0,7.4,7.4,0,0,0,3.74,6.4C3.742,15.261,0,19.535,0,24.571,0,26.579,3.02,27.1,4.158,27.3a46.428,46.428,0,0,0,7.347.5c1.54,0,4.025-.075,6.379-.287a.908.908,0,1,0-.168-1.807c-2.292.206-4.711.279-6.21.279a44.539,44.539,0,0,1-7.028-.47c-2.4-.414-2.627-.931-2.628-.938,0-5.214,4.871-9.457,10.857-9.457s10.857,4.242,10.857,9.457a.924.924,0,0,0,1.849,0c0-5.035-3.742-9.309-8.888-10.751M7,7.42a5.71,5.71,0,0,1,11.418,0A5.71,5.71,0,0,1,7,7.42" transform="translate(0 0)" fill="#d0e2e5"/>
      </g>
    </g>
  </g>
</svg>
