<svg xmlns="http://www.w3.org/2000/svg" xmlns:xlink="http://www.w3.org/1999/xlink" width="42" height="42" viewBox="0 0 42 42">
  <defs>
    <clipPath id="clip-path">
      <rect id="Rectangle_132" data-name="Rectangle 132" width="16.76" height="18.331" transform="translate(0 0)" fill="#fff"/>
    </clipPath>
  </defs>
  <g id="Group_81" data-name="Group 81" transform="translate(0.449 0.164)">
    <rect id="Rectangle_63" data-name="Rectangle 63" width="42" height="42" rx="20" transform="translate(-0.449 -0.164)" fill="#009fbd"/>
    <g id="Group_96" data-name="Group 96" transform="translate(12.171 11.67)">
      <g id="Group_95" data-name="Group 95" transform="translate(0 0)" clip-path="url(#clip-path)">
        <path id="Path_458" data-name="Path 458" d="M10.9,9.114a4.88,4.88,0,0,0,2.466-4.221,4.985,4.985,0,0,0-9.969,0A4.88,4.88,0,0,0,5.862,9.114,7.607,7.607,0,0,0,0,16.2c0,1.324,1.992,1.668,2.742,1.8a30.62,30.62,0,0,0,4.845.328c1.016,0,2.654-.05,4.207-.189a.6.6,0,1,0-.111-1.192c-1.512.136-3.107.184-4.1.184a29.375,29.375,0,0,1-4.635-.31c-1.582-.273-1.732-.614-1.733-.619,0-3.439,3.212-6.237,7.161-6.237s7.161,2.8,7.161,6.237a.61.61,0,0,0,1.219,0A7.607,7.607,0,0,0,10.9,9.114M4.615,4.894a3.766,3.766,0,0,1,7.531,0,3.766,3.766,0,0,1-7.531,0" transform="translate(0 0)" fill="#fff"/>
      </g>
    </g>
  </g>
</svg>
