<svg id="Group_96" data-name="Group 96" xmlns="http://www.w3.org/2000/svg" xmlns:xlink="http://www.w3.org/1999/xlink" width="25.412" height="27.794" viewBox="0 0 25.412 27.794">
  <defs>
    <clipPath id="clip-path">
      <rect id="Rectangle_132" data-name="Rectangle 132" width="25.412" height="27.794" transform="translate(0 0)" fill="#d0e2e5"/>
    </clipPath>
  </defs>
  <g id="Group_95" data-name="Group 95" transform="translate(0 0)" clip-path="url(#clip-path)">
    <path id="Path_458" data-name="Path 458" d="M16.524,13.82a7.4,7.4,0,0,0,3.74-6.4,7.559,7.559,0,0,0-15.115,0,7.4,7.4,0,0,0,3.74,6.4C3.742,15.261,0,19.535,0,24.571,0,26.579,3.02,27.1,4.158,27.3a46.428,46.428,0,0,0,7.347.5c1.54,0,4.025-.075,6.379-.287a.908.908,0,1,0-.168-1.807c-2.292.206-4.711.279-6.21.279a44.539,44.539,0,0,1-7.028-.47c-2.4-.414-2.627-.931-2.628-.938,0-5.214,4.871-9.457,10.857-9.457s10.857,4.242,10.857,9.457a.924.924,0,0,0,1.849,0c0-5.035-3.742-9.309-8.888-10.751M7,7.42a5.71,5.71,0,0,1,11.418,0A5.71,5.71,0,0,1,7,7.42" transform="translate(0 0)" fill="#d0e2e5"/>
  </g>
</svg>
