<svg xmlns="http://www.w3.org/2000/svg" width="50" height="44" viewBox="0 0 50 44">
  <g id="icon-paper_recycling-2855" data-name="icon-paper recycling-2855" transform="translate(-34.269 -46.4)">
    <path id="Path_7344" data-name="Path 7344" d="M54.21,110.174a.674.674,0,0,1-.155-1.33,4.594,4.594,0,0,0,3.546-4.484V74.349a.674.674,0,0,1,1.348,0v30.01a5.937,5.937,0,0,1-4.583,5.8A.676.676,0,0,1,54.21,110.174Z" transform="translate(-14.072 -19.922)" fill="#be1e2d"/>
    <path id="Path_7345" data-name="Path 7345" d="M124.671,98.489H96.341a.674.674,0,0,1-.674-.674V76.274a.674.674,0,0,1,.674-.674h28.33a.674.674,0,0,1,.674.674V97.815a.674.674,0,0,1-.674.674ZM97.015,97.141H124V76.948H97.015Z" transform="translate(-44.845 -21.328)" fill="#be1e2d"/>
    <path id="Path_7346" data-name="Path 7346" d="M84.269,62.877v-15.8A.674.674,0,0,0,83.6,46.4H47.459a.674.674,0,0,0-.674.674v6.681H34.943a.674.674,0,0,0-.674.674v8.848a.674.674,0,0,0,.2.483l1.661,1.614-1.6,1.233a.674.674,0,0,0-.263.534v9.077a.674.674,0,0,0,.467.642l1.975.634-1.936.5a.674.674,0,0,0-.505.653v5.794A5.969,5.969,0,0,0,40.231,90.4H78.307a5.969,5.969,0,0,0,5.962-5.962V67.321a.674.674,0,0,0-.167-.444L82.462,65l1.615-1.655A.674.674,0,0,0,84.269,62.877ZM42.17,89.052H40.231a4.62,4.62,0,0,1-4.614-4.614V79.167l3.69-.948a.674.674,0,0,0,.038-1.294l-3.728-1.2V67.473l1.956-1.505a.674.674,0,0,0,.059-1.017l-2.015-1.958V55.1H46.785V84.437A4.62,4.62,0,0,1,42.17,89.052ZM82.921,62.6l-1.859,1.9a.674.674,0,0,0-.025.915l1.883,2.152V84.437a4.62,4.62,0,0,1-4.614,4.614H45.942a5.953,5.953,0,0,0,2.19-4.614V47.748H82.921Z" fill="#1d0d63"/>
    <path id="Path_7347" data-name="Path 7347" d="M96.341,62.282h10a.674.674,0,1,0,0-1.348h-10a.674.674,0,1,0,0,1.348Z" transform="translate(-44.845 -10.616)" fill="#1d0d63"/>
    <path id="Path_7348" data-name="Path 7348" d="M96.341,172.282h7.369a.674.674,0,1,0,0-1.348H96.341a.674.674,0,1,0,0,1.348Z" transform="translate(-44.845 -90.96)" fill="#1d0d63"/>
    <path id="Path_7349" data-name="Path 7349" d="M134.542,171.608a.674.674,0,0,0,.674.674h7.369a.674.674,0,0,0,0-1.348h-7.369A.674.674,0,0,0,134.542,171.608Z" transform="translate(-73.24 -90.96)" fill="#1d0d63"/>
    <path id="Path_7350" data-name="Path 7350" d="M174.091,172.282h7.369a.674.674,0,1,0,0-1.348h-7.369a.674.674,0,0,0,0,1.348Z" transform="translate(-101.634 -90.96)" fill="#1d0d63"/>
    <path id="Path_7351" data-name="Path 7351" d="M96.341,184.448h7.369a.674.674,0,0,0,0-1.348H96.341a.674.674,0,0,0,0,1.348Z" transform="translate(-44.845 -99.846)" fill="#1d0d63"/>
    <path id="Path_7352" data-name="Path 7352" d="M142.585,183.1h-7.369a.674.674,0,1,0,0,1.348h7.369a.674.674,0,0,0,0-1.348Z" transform="translate(-73.24 -99.846)" fill="#1d0d63"/>
    <path id="Path_7353" data-name="Path 7353" d="M174.091,184.448h7.369a.674.674,0,1,0,0-1.348h-7.369a.674.674,0,0,0,0,1.348Z" transform="translate(-101.634 -99.846)" fill="#1d0d63"/>
    <path id="Path_7354" data-name="Path 7354" d="M184.067,62.282h4.679a.674.674,0,1,0,0-1.348h-4.679a.674.674,0,1,0,0,1.348Z" transform="translate(-108.921 -10.616)" fill="#1d0d63"/>
  </g>
</svg>
