<svg id="Group_122" data-name="Group 122" xmlns="http://www.w3.org/2000/svg" xmlns:xlink="http://www.w3.org/1999/xlink" width="307.364" height="407.859" viewBox="0 0 307.364 407.859">
  <defs>
    <clipPath id="clip-path">
      <rect id="Rectangle_214" data-name="Rectangle 214" width="307.364" height="407.859" fill="none"/>
    </clipPath>
  </defs>
  <g id="Group_122-2" data-name="Group 122" transform="translate(0 0)" clip-path="url(#clip-path)">
    <path id="Path_136" data-name="Path 136" d="M34,26.729h51.36a42.1,42.1,0,0,1,37.482,22.928L204.04,208.394a40.159,40.159,0,0,1,.314,35.946l-35.743,73.005a24.635,24.635,0,0,1-22.128,13.8H84.763l51.327-104.833Zm112.48,301.918a22.135,22.135,0,0,0,19.882-12.4l35.743-73.006a37.661,37.661,0,0,0-.294-33.708L120.62,50.8A39.6,39.6,0,0,0,85.363,29.229H38.089l100.8,197.06-.275.562-49.84,101.8Z" transform="translate(99.232 77.024)" fill="#d0e2e5"/>
    <path id="Path_137" data-name="Path 137" d="M85.643,33.338l81.194,158.737a40.158,40.158,0,0,1,.314,35.946l-35.743,73a24.638,24.638,0,0,1-22.128,13.806H47.556l51.6-105.4c3.57-7.291,6.49-14.009,8.927-20.538a154.589,154.589,0,0,0,5.949-19.578,123.263,123.263,0,0,0,2.731-38.942c-1.16-13.27-4.424-27.4-9.979-43.186-5.324-15.134-12.968-32.377-23.37-52.713Zm23.638,278.99a22.138,22.138,0,0,0,19.882-12.4l35.743-73a37.661,37.661,0,0,0-.294-33.708L107.147,80.87q1.048,2.79,2,5.49c5.625,15.989,8.932,30.316,10.111,43.8a125.723,125.723,0,0,1-2.785,39.72,157.048,157.048,0,0,1-6.043,19.892c-2.466,6.606-5.418,13.4-9.024,20.763l-49.84,101.8Z" transform="translate(136.434 93.343)" fill="#d0e2e5"/>
    <path id="Path_138" data-name="Path 138" d="M173.441,303.419h-51.36A42.105,42.105,0,0,1,84.6,280.491L3.4,121.754A40.158,40.158,0,0,1,3.09,85.808L38.833,12.8A24.635,24.635,0,0,1,60.961-1h61.72L71.354,103.834ZM60.961,1.5A22.135,22.135,0,0,0,41.079,13.9L5.336,86.908a37.661,37.661,0,0,0,.294,33.708L86.824,279.353a39.605,39.605,0,0,0,35.257,21.566h47.274l-100.8-197.06.275-.562L118.674,1.5Z" transform="translate(0.688 0.691)" fill="#d0e2e5"/>
    <path id="Path_139" data-name="Path 139" d="M84.6,280.49,3.4,121.753A40.158,40.158,0,0,1,3.09,85.807l35.743-73A24.638,24.638,0,0,1,60.961-1h61.724l-51.6,105.4c-3.57,7.291-6.49,14.009-8.927,20.538a154.587,154.587,0,0,0-5.949,19.578,123.263,123.263,0,0,0-2.731,38.942c1.16,13.27,4.424,27.4,9.979,43.186,5.324,15.134,12.968,32.377,23.37,52.713ZM60.961,1.5A22.138,22.138,0,0,0,41.079,13.9l-35.743,73a37.661,37.661,0,0,0,.294,33.708L63.094,232.958q-1.048-2.79-2-5.49c-5.625-15.989-8.932-30.316-10.111-43.8a125.723,125.723,0,0,1,2.785-39.72,157.049,157.049,0,0,1,6.043-19.892c2.466-6.606,5.418-13.4,9.024-20.763L118.677,1.5Z" transform="translate(0.688 0.688)" fill="#d0e2e5"/>
  </g>
</svg>
