<svg id="Group_2161" data-name="Group 2161" xmlns="http://www.w3.org/2000/svg" xmlns:xlink="http://www.w3.org/1999/xlink" width="129.411" height="61.704" viewBox="0 0 129.411 61.704">
  <defs>
    <clipPath id="clip-path">
      <rect id="Rectangle_1007" data-name="Rectangle 1007" width="129.411" height="61.704" fill="none"/>
    </clipPath>
  </defs>
  <g id="Group_2160" data-name="Group 2160" transform="translate(0 0)" clip-path="url(#clip-path)">
    <path id="Path_7481" data-name="Path 7481" d="M36.348,13.026a1.959,1.959,0,0,1,1.693.835A1.782,1.782,0,0,1,38.3,15.6a3.907,3.907,0,0,1-1.5,1.812,4.144,4.144,0,0,1-2.313.668H31.77a1.607,1.607,0,0,1-1.359-.668,1.417,1.417,0,0,1-.215-1.43,1.231,1.231,0,0,0,.1-.668,1.322,1.322,0,0,0-.239-.6,1.421,1.421,0,0,0-.524-.428,1.579,1.579,0,0,0-.715-.167,1.417,1.417,0,0,0-1.43.906l-.429,1.1a2.851,2.851,0,0,0-.072,1.812,2.8,2.8,0,0,0,1.073,1.454,3.049,3.049,0,0,0,1.859.6h2.336a2.969,2.969,0,0,1,2.5,1.239,2.511,2.511,0,0,1,.357,2.623,7.772,7.772,0,0,1-3.1,3.767,8.719,8.719,0,0,1-4.864,1.43h-10.2a1.975,1.975,0,0,1-1.693-.81,1.725,1.725,0,0,1-.215-1.765,3.785,3.785,0,0,1,1.455-1.788,4.045,4.045,0,0,1,2.312-.692h2.719a1.609,1.609,0,0,1,1.359.668A1.421,1.421,0,0,1,23,26.092a1.279,1.279,0,0,0-.048.906,1.408,1.408,0,0,0,.548.715,1.571,1.571,0,0,0,.93.286,1.334,1.334,0,0,0,1.383-.954l.334-.811a3.464,3.464,0,0,0-.454-3.552,3.945,3.945,0,0,0-3.361-1.645H21.47a2.99,2.99,0,0,1-2.5-1.216,2.541,2.541,0,0,1-.358-2.646,6.2,6.2,0,0,1,2.456-3,6.923,6.923,0,0,1,3.886-1.144Z" transform="translate(-6.073 -5.349)" fill="#1d0d63"/>
    <path id="Path_7482" data-name="Path 7482" d="M84.426,13.026a1.974,1.974,0,0,1,1.669.835,1.741,1.741,0,0,1,.238,1.788L81.517,27.808a1.9,1.9,0,0,1-1.907,1.24h-20.5a5.69,5.69,0,0,1-4.053-1.574,5.069,5.069,0,0,1-1.55-2.623,4.767,4.767,0,0,1,.263-3l2.956-7.534a1.939,1.939,0,0,1,1.956-1.288H62.2a1.976,1.976,0,0,1,1.669.835,1.742,1.742,0,0,1,.238,1.788l-1.717,4.34-.428,1.049-.715,1.812a3.469,3.469,0,0,0,.5,3.5A3.947,3.947,0,0,0,65.113,28h2.814a.549.549,0,0,0,.4-.167.525.525,0,0,0,.167-.381.452.452,0,0,0-.167-.358.6.6,0,0,0-.4-.143h-.62a2.949,2.949,0,0,1-2.527-1.24,2.623,2.623,0,0,1-.381-2.623l.811-2.05.428-1.049,2.241-5.674a1.9,1.9,0,0,1,1.907-1.288h3.576a2.113,2.113,0,0,1,1.955,1.383,1.864,1.864,0,0,1-.047,1.239l-2.861,7.2a3.468,3.468,0,0,0,.5,3.5A3.945,3.945,0,0,0,76.271,28h2.718a.55.55,0,0,0,.405-.167.526.526,0,0,0,.167-.381.454.454,0,0,0-.167-.358.605.605,0,0,0-.405-.143H78.37a2.948,2.948,0,0,1-2.527-1.24,2.7,2.7,0,0,1-.382-2.67l.81-2,.43-1.049,2.241-5.674A1.939,1.939,0,0,1,80.9,13.026Z" transform="translate(-21.916 -5.349)" fill="#1d0d63"/>
    <path id="Path_7483" data-name="Path 7483" d="M116.573,9.206a1.912,1.912,0,0,1,1.693.906,2,2,0,0,1,.215,1.907l-4.626,11.969a1.852,1.852,0,0,1-1.907,1.239h-3.529a1.955,1.955,0,0,1-1.693-.835,1.782,1.782,0,0,1-.262-1.74l4.721-12.159a1.82,1.82,0,0,1,1.859-1.287Zm2.289-5.484a1.975,1.975,0,0,1,1.669.835,1.666,1.666,0,0,1,.238,1.74l-.238.62A1.9,1.9,0,0,1,118.623,8.2h-3.529a1.924,1.924,0,0,1-1.669-.906,1.959,1.959,0,0,1-.238-1.907l.19-.429a1.853,1.853,0,0,1,1.908-1.24Z" transform="translate(-43.668 -1.528)" fill="#1d0d63"/>
    <path id="Path_7484" data-name="Path 7484" d="M144.614,3.958a.555.555,0,0,1,.405.167.528.528,0,0,1,.167.382.453.453,0,0,1-.167.357.6.6,0,0,1-.405.143h-1v.047h-1.24a6.119,6.119,0,0,0-3.433,1,5.666,5.666,0,0,0-2.194,2.623L131.263,22.46a1.853,1.853,0,0,1-1.908,1.239h-3.529a1.957,1.957,0,0,1-1.693-.835,1.769,1.769,0,0,1-.215-1.788l5.722-14.449.428-1.048,1.193-3.1A3.853,3.853,0,0,1,132.789.668,4.263,4.263,0,0,1,135.125,0H138.7a.982.982,0,0,1,.858.406.877.877,0,0,1,.1.882l-.1.286a1.648,1.648,0,0,0,.215,1.646,1.814,1.814,0,0,0,1.55.739Z" transform="translate(-50.824 0)" fill="#1d0d63"/>
    <path id="Path_7485" data-name="Path 7485" d="M162.986,13.026a2.954,2.954,0,0,1,2.527,1.24,2.616,2.616,0,0,1,.334,2.67,1.7,1.7,0,0,1-1.764,1.144h-4.244a1.543,1.543,0,0,1-1.334-.668,1.371,1.371,0,0,1-.192-1.382,1.261,1.261,0,0,0-.167-1.312,1.5,1.5,0,0,0-1.263-.6,1.417,1.417,0,0,0-1.431.906l-4.387,11.063a1.318,1.318,0,0,0,.215,1.288,1.529,1.529,0,0,0,2.646-.334l1.383-3.529a5.652,5.652,0,0,1,2.145-2.551,5.836,5.836,0,0,1,3.29-.977h.954a1.977,1.977,0,0,1,1.693.81,1.724,1.724,0,0,1,.215,1.765l-.81,2.1a6.755,6.755,0,0,1-2.646,3.195,7.329,7.329,0,0,1-4.077,1.192h-9.68a2.967,2.967,0,0,1-2.5-1.24,2.511,2.511,0,0,1-.358-2.622l4.053-10.253a2.891,2.891,0,0,1,1.121-1.383,3.149,3.149,0,0,1,1.788-.525Z" transform="translate(-58.848 -5.349)" fill="#1d0d63"/>
    <path id="Path_7486" data-name="Path 7486" d="M199.879,7.677a2.542,2.542,0,0,1,2.169,1.073,2.221,2.221,0,0,1,.31,2.265l-4.53,11.444a1.855,1.855,0,0,1-1.908,1.24h-3.529a2.036,2.036,0,0,1-1.716-.81,1.693,1.693,0,0,1-.239-1.765l2.528-6.294a4.081,4.081,0,0,0-.573-4.148,4.671,4.671,0,0,0-3.958-1.908h-1.812a.6.6,0,0,0-.406.143.451.451,0,0,0-.167.358.523.523,0,0,0,.167.381.55.55,0,0,0,.406.167,3.425,3.425,0,0,1,2.908,1.406,2.909,2.909,0,0,1,.382,3.028l-3.242,8.2a1.853,1.853,0,0,1-1.907,1.24h-3.529a1.974,1.974,0,0,1-1.693-.81,1.811,1.811,0,0,1-.262-1.765L186.671,2.48a4.027,4.027,0,0,1,.906-1.312A4.2,4.2,0,0,1,188.912.31,4.26,4.26,0,0,1,190.533,0h3.576a1.047,1.047,0,0,1,.882.405.848.848,0,0,1,.119.882l-1.049,2.527a2.651,2.651,0,0,0,.381,2.647,2.97,2.97,0,0,0,2.527,1.216Z" transform="translate(-73.568 0)" fill="#1d0d63"/>
    <path id="Path_7487" data-name="Path 7487" d="M178.811,58.532h-3.545a2.051,2.051,0,0,0-1.922,1.252l-2.256,5.694-.42,1.064-.8,2.009a2.9,2.9,0,0,0,2.878,3.875h.638a.53.53,0,1,1,0,1.059l-2.741,0a3.87,3.87,0,0,1-3.837-5.166l2.856-7.2a1.938,1.938,0,0,0-1.922-2.588H164.2a2.053,2.053,0,0,0-1.923,1.252l-2.257,5.694-.42,1.064-.8,2.013a2.9,2.9,0,0,0,2.878,3.875h.631a.53.53,0,1,1,0,1.058H159.5a3.872,3.872,0,0,1-3.838-5.165l.7-1.779.43-1.064,1.727-4.358a1.94,1.94,0,0,0-1.923-2.587h-3.547a2.052,2.052,0,0,0-1.923,1.252l-2.99,7.549a5.1,5.1,0,0,0,1.312,5.634,5.66,5.66,0,0,0,1.187.848H143.5l1.433-3.892a1.827,1.827,0,0,0,.12-.492l.546-1.372a1.935,1.935,0,0,0-1.919-2.584h-.95a5.786,5.786,0,0,0-5.426,3.534L135.9,72.56a1.517,1.517,0,0,1-1.422.926,1.433,1.433,0,0,1-1.42-1.914l4.39-11.051a1.51,1.51,0,0,1,1.417-.922,1.431,1.431,0,0,1,1.417,1.908,1.552,1.552,0,0,0,1.538,2.071h4.225a1.91,1.91,0,0,0,1.794-1.169,2.9,2.9,0,0,0-2.876-3.876H132.442a3.069,3.069,0,0,0-2.878,1.874l-4.072,10.258a2.905,2.905,0,0,0,2.878,3.877h7.047l-.239.641-.728,1.836c-.042.1-.089.207-.137.309l-2.567,6.362a1.685,1.685,0,0,1-.107.429l-.131.328a.968.968,0,0,0,.961,1.291h3.6a4.089,4.089,0,0,0,3.839-2.5l1.221-3.084.43-1.064,1.724-4.681h8.962a6.08,6.08,0,0,0,1.249.134h20.49a2.05,2.05,0,0,0,1.92-1.249l4.831-12.171a1.941,1.941,0,0,0-1.921-2.591" transform="translate(-51.451 -24.035)" fill="#009fbd"/>
    <path id="Path_7488" data-name="Path 7488" d="M118.541,57.535h-3.514a2.048,2.048,0,0,0-1.9,1.287l-4.681,12.134a1.933,1.933,0,0,0,1.917,2.581h3.556a2.048,2.048,0,0,0,1.917-1.247l4.6-11.947a2.047,2.047,0,0,0-1.9-2.807" transform="translate(-44.477 -23.625)" fill="#009fbd"/>
    <path id="Path_7489" data-name="Path 7489" d="M93.636,73.288h3.556a2.048,2.048,0,0,0,1.917-1.247l4.6-11.947a2.047,2.047,0,0,0-1.9-2.807H98.3a2.048,2.048,0,0,0-1.9,1.287L91.718,70.708a1.933,1.933,0,0,0,1.917,2.58" transform="translate(-37.609 -23.524)" fill="#009fbd"/>
    <path id="Path_7490" data-name="Path 7490" d="M84.814,57.287H81.3a2.048,2.048,0,0,0-1.9,1.287L74.718,70.708a1.933,1.933,0,0,0,1.917,2.581h3.556a2.048,2.048,0,0,0,1.917-1.247l4.6-11.947a2.047,2.047,0,0,0-1.9-2.807" transform="translate(-30.628 -23.524)" fill="#009fbd"/>
    <path id="Path_7491" data-name="Path 7491" d="M43.994,57.283H40.449a2.051,2.051,0,0,0-1.922,1.252l-2.256,5.694-.42,1.064-.8,2.009a2.9,2.9,0,0,0,2.878,3.875h.638a.53.53,0,1,1,0,1.059l-2.741,0a3.87,3.87,0,0,1-3.837-5.166l2.856-7.2a1.938,1.938,0,0,0-1.922-2.588H29.38a2.053,2.053,0,0,0-1.923,1.252L25.2,64.231l-.42,1.064-.8,2.013a2.9,2.9,0,0,0,2.878,3.875h.631a.53.53,0,1,1,0,1.058H24.678a3.872,3.872,0,0,1-3.838-5.165l.7-1.779.43-1.064L23.7,59.874a1.94,1.94,0,0,0-1.923-2.587H18.232a2.052,2.052,0,0,0-1.923,1.252l-2.99,7.549a5.015,5.015,0,0,0,.077,3.877A5.382,5.382,0,0,0,12,71.959L10.6,75.505a1.517,1.517,0,0,1-1.421.926,1.433,1.433,0,0,1-1.421-1.914l4.39-11.05c.783-1.948,1.373-1.948-1.574-1.948l-3.428-.04a3.07,3.07,0,0,0-2.878,1.874L.194,73.612a2.9,2.9,0,0,0,2.878,3.876h9.673a7.174,7.174,0,0,0,6.637-4.194H39.164a2.05,2.05,0,0,0,1.92-1.249l4.831-12.171a1.941,1.941,0,0,0-1.921-2.591" transform="translate(0 -23.522)" fill="#009fbd"/>
    <path id="Path_7492" data-name="Path 7492" d="M105.076,51.543h3.512a2.048,2.048,0,0,0,1.9-1.287l.239-.6a1.935,1.935,0,0,0-1.917-2.583h-3.555a2.047,2.047,0,0,0-1.918,1.247l-.163.411a2.048,2.048,0,0,0,1.9,2.807" transform="translate(-42.306 -19.332)" fill="#009fbd"/>
    <path id="Path_7493" data-name="Path 7493" d="M87.076,51.543h3.512a2.048,2.048,0,0,0,1.9-1.287l.239-.6a1.935,1.935,0,0,0-1.917-2.583H87.256a2.047,2.047,0,0,0-1.918,1.247l-.163.411a2.048,2.048,0,0,0,1.9,2.807" transform="translate(-34.915 -19.332)" fill="#009fbd"/>
    <path id="Path_7494" data-name="Path 7494" d="M33.647,51.184h3.512a2.048,2.048,0,0,0,1.9-1.287l.239-.6a1.935,1.935,0,0,0-1.917-2.583H33.827a2.047,2.047,0,0,0-1.918,1.247l-.163.411a2.048,2.048,0,0,0,1.9,2.807" transform="translate(-12.975 -19.184)" fill="#009fbd"/>
    <path id="Path_7495" data-name="Path 7495" d="M51.647,51.184h3.512a2.048,2.048,0,0,0,1.9-1.287l.239-.6a1.935,1.935,0,0,0-1.917-2.583H51.827a2.047,2.047,0,0,0-1.918,1.247l-.163.411a2.048,2.048,0,0,0,1.9,2.807" transform="translate(-20.366 -19.184)" fill="#009fbd"/>
    <path id="Path_7496" data-name="Path 7496" d="M69.647,51.184h3.512a2.048,2.048,0,0,0,1.9-1.287l.239-.6a1.935,1.935,0,0,0-1.917-2.583H69.827a2.047,2.047,0,0,0-1.918,1.247l-.163.411a2.048,2.048,0,0,0,1.9,2.807" transform="translate(-27.758 -19.184)" fill="#009fbd"/>
    <path id="Path_7497" data-name="Path 7497" d="M109.123,87.967h-3.555a2.046,2.046,0,0,0-1.918,1.247l-.163.411a2.048,2.048,0,0,0,1.9,2.807H108.9a2.049,2.049,0,0,0,1.9-1.287l.239-.6a1.935,1.935,0,0,0-1.917-2.583" transform="translate(-42.434 -36.122)" fill="#009fbd"/>
    <path id="Path_7498" data-name="Path 7498" d="M94.123,87.967H90.568a2.046,2.046,0,0,0-1.918,1.247l-.163.411a2.048,2.048,0,0,0,1.9,2.807H93.9a2.049,2.049,0,0,0,1.9-1.287l.239-.6a1.935,1.935,0,0,0-1.917-2.583" transform="translate(-36.275 -36.122)" fill="#009fbd"/>
  </g>
</svg>
