<svg id="Group_2077" data-name="Group 2077" xmlns="http://www.w3.org/2000/svg" xmlns:xlink="http://www.w3.org/1999/xlink" width="31.991" height="32" viewBox="0 0 31.991 32">
  <defs>
    <clipPath id="clip-path">
      <rect id="Rectangle_931" data-name="Rectangle 931" width="31.991" height="32" fill="#1d0d63"/>
    </clipPath>
  </defs>
  <g id="Group_2076" data-name="Group 2076" clip-path="url(#clip-path)">
    <path id="Path_7422" data-name="Path 7422" d="M0,15.062c.083-.616.135-1.238.252-1.848A15.763,15.763,0,0,1,8.495,1.879,15.118,15.118,0,0,1,16.67.021,15.694,15.694,0,0,1,28,5.45a15.334,15.334,0,0,1,3.905,8.944,15.6,15.6,0,0,1-4.148,12.435A15.648,15.648,0,0,1,18.543,31.8c-.532.09-1.07.136-1.606.2H15.062a1.678,1.678,0,0,0-.241-.051,15.042,15.042,0,0,1-6.332-1.829A15.786,15.786,0,0,1,.252,18.785C.135,18.175.082,17.554,0,16.937V15.062m28.378,9.266a14.163,14.163,0,0,0,1.638-3.209l-.988-.335.325-1,1,.305a14.322,14.322,0,0,0,.556-3.556H29.894V15.452h1.017a14.158,14.158,0,0,0-.565-3.547l-.994.307-.323-1,.993-.338a14.474,14.474,0,0,0-1.642-3.2l-.851.6-.618-.852L27.8,6.76,25.24,4.2l-.662.9-.857-.626.612-.851a14.493,14.493,0,0,0-3.214-1.635l-.333.986-1-.324.3-1a14.13,14.13,0,0,0-3.559-.554V2.116H15.454V1.088a13.954,13.954,0,0,0-3.549.573l.306.991-1,.324-.34-.994a14.16,14.16,0,0,0-3.2,1.642l.6.849-.857.616L6.757,4.2,4.2,6.758l.9.663-.619.855L3.62,7.669a14.515,14.515,0,0,0-1.635,3.209l.987.336-.326,1-1-.3a14.153,14.153,0,0,0-.558,3.557H2.105v1.084h-1a11.833,11.833,0,0,0,.588,3.536l.962-.3.321,1-.993.337a14.425,14.425,0,0,0,1.641,3.2l.85-.6.622.855-.9.659L6.758,27.8l.662-.9.856.62-.6.853a14.158,14.158,0,0,0,3.207,1.637l.337-.988,1,.325-.3,1a14.168,14.168,0,0,0,3.556.559V29.894h1.084v1.017a14.158,14.158,0,0,0,3.546-.565l-.307-.994,1-.323.338.991a14.22,14.22,0,0,0,3.2-1.643l-.6-.847.856-.624.614.839a14.481,14.481,0,0,0,2.546-2.554l-.836-.612.622-.859.851.609" transform="translate(0 0)" fill="#1d0d63"/>
    <path id="Path_7423" data-name="Path 7423" d="M74.7,62.971a11.728,11.728,0,1,1-11.723-11.73A11.706,11.706,0,0,1,74.7,62.971m-1.067-.014A10.663,10.663,0,1,0,62.979,73.619,10.646,10.646,0,0,0,73.63,62.957" transform="translate(-46.962 -46.962)" fill="#1d0d63"/>
    <path id="Path_7424" data-name="Path 7424" d="M92.1,101.208a9.063,9.063,0,1,1,9.1-9.02,9.076,9.076,0,0,1-9.1,9.02m2.844-16.54c-.428,1.029-.83,2.02-1.256,3a2.28,2.28,0,0,1-.466.726,1.577,1.577,0,0,1-2.572-.587c-.413-.942-.8-1.9-1.193-2.848-.039-.093-.085-.182-.125-.268a7.23,7.23,0,0,0-3.4,2.5c.851.731,1.709,1.458,2.555,2.2a1.6,1.6,0,0,1-.932,2.828c-.757.065-1.515.122-2.272.186-.369.031-.737.068-1.115.1a7.948,7.948,0,0,0,1.306,4.032c.12-.071.218-.127.315-.185.862-.526,1.72-1.057,2.585-1.576a1.6,1.6,0,0,1,2.418,1.788c-.1.436-.206.87-.308,1.305-.154.653-.307,1.306-.463,1.971a7.669,7.669,0,0,0,4.248-.006c-.262-1.108-.515-2.18-.767-3.251A1.607,1.607,0,0,1,95.946,94.8L98,96.054l.815.494a7.889,7.889,0,0,0,1.3-4.042c-.2-.018-.361-.035-.526-.048q-1.416-.118-2.832-.233a1.6,1.6,0,0,1-.91-2.878c.386-.334.774-.664,1.161-1l1.378-1.185a8.022,8.022,0,0,0-3.443-2.5m-4.564-.308c.035.1.057.179.089.254.371.892.745,1.784,1.114,2.677.105.255.245.471.553.474.324,0,.463-.226.572-.491.364-.884.735-1.765,1.1-2.648.035-.083.059-.171.092-.266a7.589,7.589,0,0,0-3.522,0m4.9,15.129A8.023,8.023,0,0,0,98.147,97.4l-.937-.574q-.932-.568-1.864-1.135a.536.536,0,0,0-.616-.009.527.527,0,0,0-.215.577c.032.184.081.365.124.547.211.887.423,1.774.641,2.685M85.29,88.053a7.805,7.805,0,0,0-1.1,3.381c1.145-.1,2.253-.179,3.357-.3a.574.574,0,0,0,.4-.358.713.713,0,0,0-.178-.571c-.8-.726-1.632-1.42-2.484-2.152m.841,9.343A7.923,7.923,0,0,0,89,99.483c.06-.246.114-.467.167-.688q.29-1.212.578-2.424a.6.6,0,0,0-.153-.659.5.5,0,0,0-.61-.049c-.943.567-1.88,1.142-2.849,1.733m12.848-9.332-2.358,2.022c-.047.041-.1.08-.14.124a.53.53,0,0,0-.166.592.537.537,0,0,0,.5.358c.621.053,1.242.11,1.864.16.461.037.923.065,1.386.1a7.276,7.276,0,0,0-1.087-3.352" transform="translate(-76.141 -76.144)" fill="#1d0d63"/>
    <path id="Path_7425" data-name="Path 7425" d="M170.406,168.312a2.127,2.127,0,1,1-2.1-2.155,2.134,2.134,0,0,1,2.1,2.155m-1.065-.013a1.062,1.062,0,1,0-1.062,1.047,1.064,1.064,0,0,0,1.062-1.047" transform="translate(-152.28 -152.283)" fill="#1d0d63"/>
  </g>
</svg>
